<?xml version="1.0" encoding="utf-8"?>
<!-- Generator: Adobe Illustrator 21.0.0, SVG Export Plug-In . SVG Version: 6.00 Build 0)  -->
<svg version="1.1" id="Calque_1" xmlns="http://www.w3.org/2000/svg" xmlns:xlink="http://www.w3.org/1999/xlink" x="0px" y="0px"
	 viewBox="0 0 595.3 595.3" style="enable-background:new 0 0 595.3 595.3;" xml:space="preserve">
<style type="text/css">
	.st0{fill:#757576;}
	.st1{fill:#A4A3A4;}
	.st2{fill:#FFC947;}
</style>
<path class="st0" d="M595.3,298.2c0,3.8-0.1,7.6-0.2,11.4c-0.3,8.8-1,17.6-2.1,26.2c-14.3,113.4-92.5,206.9-197.3,243.3
	c-25.4,8.8-52.3,14.3-80.2,15.9c-5.7,0.3-11.5,0.5-17.4,0.5c-6.5,0-12.9-0.2-19.2-0.6c-4.7-0.3-9.3-0.7-13.9-1.2
	c-2.3-0.3-4.5-0.5-6.8-0.8c-3.2-0.4-6.4-0.9-9.6-1.4c-8.3-1.4-16.5-3.1-24.5-5.2c-24-6.1-46.8-15.2-68-26.8
	c-16.1-8.8-31.3-19-45.3-30.4C43.6,474.5,0.7,391.3,0.7,298.2C0.7,134,133.8,0.9,298,0.9C405.5,0.9,499.8,58,552,143.5
	c1.8,2.9,3.5,5.8,5.1,8.7c0.7,1.2,1.4,2.5,2.1,3.7c1.3,2.4,2.6,4.8,3.8,7.2c3.4,6.7,6.6,13.5,9.5,20.5
	c11.5,27.4,18.9,56.9,21.7,87.7c0,0.1,0,0.1,0,0.2C594.9,280.3,595.3,289.2,595.3,298.2z"/>
<path class="st1" d="M595.1,309.6c-0.3,8.8-1,17.6-2.1,26.2c-14.3,113.4-92.5,206.9-197.3,243.3c-25.4,8.8-52.3,14.3-80.2,15.9
	c-5.7,0.3-11.5,0.5-17.4,0.5c-6.5,0-12.9-0.2-19.2-0.6c-4.7-0.3-9.3-0.7-13.9-1.2c-2.3-0.3-4.5-0.5-6.8-0.8
	c-3.2-0.4-6.4-0.9-9.6-1.4c-8.3-1.4-16.5-3.1-24.5-5.2l-66.4-193.4L189,265l40-128l70,22l38,70l6.2,15.8
	c5.3,16.6,16.2,24.2,35.8,17.7l69.3,12l35.4,5.3L595.1,309.6z"/>
<path class="st2" d="M370.3,423.9c-16.4-5.3-32.9-15.6-45.2-30.9c-1.3-1.8-2.8-1.5-3.6,1l-11.9,36.6c-0.6,2-0.8,3.3,0.7,4.6
	c8.7,9.7,25.9,20.2,47.5,27.3c41.1,13.3,78.4,1.8,91.3-38c8.6-26.6,2.4-48.7-30.6-80.4c-21.9-22.3-24.4-29.9-21.5-38.9
	c2.7-8.2,12.6-16,32.3-9.6c16.2,5.3,31,14.7,39.7,25.3c2.2,1.6,3.9,0.7,4.5-1.3l11.1-34.1c0.6-1.7,0.7-3.9-0.9-5.8
	c-7-6.4-20.9-14.5-42.3-21.4c-43.5-14.1-77.3,4.3-87.8,36.4c-9.3,28.6-0.2,50.6,29.6,79c20.9,21.1,24.1,30.9,21.2,39.9
	C400.8,424.8,389.9,430.3,370.3,423.9z"/>
<path class="st2" d="M210.7,108c-2-0.6-5.9-0.5-6.4,1.2l0,0l-86.8,267.2c-0.7,2.2,0,3.3,2,4l38.1,12.4c2.2,0.7,3.3,0,4-2l31-95.5
	c6.7,2.2,9.8,3.7,19.2,6.8c56.2,18.3,110.8,6,131.4-57.2c15.7-48.3,1.1-94.8-67.8-117.2C250.7,119.6,226.9,112.5,210.7,108z
	 M298.3,231.4c-12.9,39.6-43.5,40.9-72.7,31.4c-10-3.2-14.4-4.7-20-7l31.2-96c4.6,1.2,14.2,3.8,24.1,7
	C294.1,177.5,308.6,199.8,298.3,231.4z"/>
</svg>
