<?xml version="1.0" encoding="utf-8"?>
<!-- Generator: Adobe Illustrator 21.0.0, SVG Export Plug-In . SVG Version: 6.00 Build 0)  -->
<svg version="1.1" xmlns="http://www.w3.org/2000/svg" xmlns:xlink="http://www.w3.org/1999/xlink" x="0px" y="0px"
	 viewBox="0 0 595.3 595.3" style="enable-background:new 0 0 595.3 595.3;" xml:space="preserve">
<style type="text/css">
	.st0{fill:#757576;}
	.st1{fill:#A4A3A4;}
	.st2{fill:#FFC847;}
	.st3{fill:#FFC947;}
</style>
<g id="Calque_1">
	<path class="st0" d="M595.3,298.2c0,12.7-0.8,25.3-2.4,37.6c-18.4,145.6-142,258.4-292.2,259.7H298c-6.5,0-12.9-0.2-19.2-0.6
		c-7-0.4-13.9-1.1-20.7-2.1c-27.8-3.7-54.3-11.3-79.1-22.1c-7.9-3.4-15.6-7.2-23.1-11.3c-4.6-2.5-9.1-5.1-13.5-7.9
		c-11.1-6.8-21.8-14.4-31.8-22.5C43.6,474.5,0.7,391.3,0.7,298.2C0.7,134,133.8,0.9,298,0.9c107.5,0,201.8,57.1,254,142.6
		c1.8,2.9,3.5,5.8,5.1,8.7c5,8.9,9.6,18.1,13.7,27.6c0.7,1.7,1.4,3.4,2.1,5c7.7,18.7,13.6,38.4,17.4,58.7c1.7,9.2,3,18.5,3.8,28
		C594.9,280.3,595.3,289.2,595.3,298.2z"/>
	<path class="st1" d="M595.3,298.2c0,12.7-0.8,25.3-2.4,37.6c-18.4,145.6-142,258.4-292.2,259.7H298c-6.5,0-12.9-0.2-19.2-0.6
		c-7-0.4-13.9-1.1-20.7-2.1c-27.8-3.7-54.3-11.3-79.1-22.1c-7.9-3.4-15.6-7.2-23.1-11.3c-4.6-2.5-9.1-5.1-13.5-7.9L126.7,516
		l-11.1-25.1l1.5-37.5l1.5-33l-36-19.5l-30-22.5l-1.5-25.5l36-25.5l33-13.5l-4.5-36l3-42l19.5-16.5l34.5,12l30,18l12-7.5l31.2-58.3
		l21.3-10.7c0,0,10.5-27,4.5-40.5s42-63,42-63s39-30,75-7.5c36,22.5,30,70.5,30,70.5l171.7,111.2c1.7,9.2,3,18.5,3.8,28
		C594.9,280.3,595.3,289.2,595.3,298.2z"/>
</g>
<g id="Calque_2">
	<path class="st2" d="M274.4,330.7c-2.1-3.5-4.2-7-6.4-10.5c-0.2,0-0.4,0-0.6-0.1c-8.7-1.2-16.5-3.7-23.2-7.4
		c5.5,7.9,10.9,16.4,16,25.2c6.2,1.3,12.6,1.9,19.2,2C277.9,336.9,276.2,333.8,274.4,330.7z M227.2,296.8c-0.3-0.5-0.7-1-1-1.6
		c-4.6-0.2-9.3-0.3-14-0.3c-2.3,0-4.7,0-7,0.1c1.8,4.8,4.1,9.1,6.5,12.9c0.6,0.9,1.3,1.9,2,2.8c9.9,0,19.7,0.5,29.3,1.3
		C236.6,308.1,231.3,303,227.2,296.8z M219.5,281.1c-4-12.2-3.7-24.9,1-37.7c1-2.6,2.1-5.3,3.5-8c7.5-15,19.4-26.1,26.9-31.7
		c-1.6-5.1-4-13.8-5.1-20.2c-25,18.1-37.9,38.9-43.2,58.9c-1.6,6.2-2.5,12.4-2.8,18.3c0,0.8-0.1,1.6-0.1,2.3
		c-0.1,7.4,0.7,14.5,2.2,21c3.4-4,6.8-7.7,10.1-11.2C214.5,275.6,217,278.3,219.5,281.1z M434.9,229.5
		c-0.4-11.9-10.3-21.4-22.2-21.4H412c-12.3,0.4-21.8,10.7-21.4,23c0.4,5.9,2.8,11.1,6.3,14.6c-13.5,26.5-34,45.9-64.9,62.1
		c-3.1,1.6-6.2,3.1-9.4,4.5c-9.8,4.1-19.7,6.8-29.7,8c-1.8,6.4-4,12.9-6.4,19.5c5.8-0.3,11.6-1.1,17.4-2.5c1.5-4.5,2.9-8.9,4.1-13.2
		c6.8,2.1,13.2,4.5,19.2,7c6.8-2.3,13.3-5.1,19.5-8.2c29.9-15.1,53.2-39.1,68.3-70.3C426.6,251.3,435.3,241.4,434.9,229.5z
		 M484.8,203.4c-30.1-35.2-74.4-54.6-125.1-54.6h-6.3c-3.6-7.1-11.1-11.9-19.4-11.9h-0.8c-12.3,0.4-21.8,10.7-21.4,23
		c0.4,11.9,10.3,21.4,22.2,21.4h0.8c8.7-0.4,16.2-5.9,19.4-13.5h7.1c30.1,0,58.6,8.7,84.3,25.7c19.8,13.1,34,30.1,41.9,50.7
		c6.7,16.6,6.3,32.8-0.8,46.7c-11.1,21-29.7,32.4-54.2,32.4c-15.8,0-30.9-4.7-38.8-8.3c-4.4,4-12.3,10.3-17.8,14.2
		c17,7.9,34.4,12.3,51.1,12.3c38,0,66.1-21,76.8-41.9C515.3,276.6,514.5,237,484.8,203.4z M352.2,46.3c-35.6,0-68.5,25.7-81.5,63.7
		c-13.3,37-10.5,73,0.5,104.6c1.8,5,3.7,9.9,5.9,14.7c1.7-0.3,3.4-0.4,5-0.4v0.1c3.3,0,5.8,0.7,8,1.8c9.1,5.2,13.3,24.3,10.9,49.2
		c1.6,0.4,3.2,0.6,4.9,0.6h0.8c3.7-0.1,7.1-1.1,10.1-2.8c7-3.9,11.5-11.5,11.2-20.1c-0.3-9.4-6.6-17.3-15.1-20.2
		c-2.2-0.8-4.6-1.2-7.1-1.2h-0.8c-0.8,0-2,0-2.8,0.4c-4.3-7.2-8-14.5-11-22c-8.2-20.7-11.4-42.6-9.6-65.8
		c1.6-23.7,9.5-44.3,23.3-61.3c11.5-14.6,33.6-21.8,48.7-22.2c41.9-0.8,59.8,51.5,60.9,72.4c5.1,1.2,13.9,4,19.8,5.9
		C429.8,79.5,390.2,46.3,352.2,46.3z"/>
	<path class="st3" d="M384.4,366.6c0-16-14.1-31.4-37.6-43.8c-7.2-3.8-15.3-7.3-24.1-10.5c-3.4-1.2-7-2.4-10.6-3.5
		c2.5-11,4.1-21.4,4.8-31.1c1.2-15.9-0.1-29.6-3.8-40.3c-3.2-9.2-8.3-16.1-15.2-20.1c-2-1.2-4.2-2.1-6.4-2.7
		c-2.9-0.8-5.9-1.2-9.2-1.2v-0.1c-3.5,0-7.1,0.4-11,1.3c-6.8,1.5-14.1,4.4-21.7,8.5c-9.3,5-19.1,11.8-29,20.2
		c-2.8,2.4-5.6,4.9-8.4,7.5c-3.2-3-6.4-5.8-9.5-8.4c-22.2-18.5-43.7-28.9-60.6-28.9v-0.1c-3,0-5.8,0.3-8.4,1c-2.6,0.6-5.1,1.6-7.5,3
		c-19.7,11.4-24.2,46.8-14,91.3c-43.6,13.6-72,35.2-72,57.9c0,22.8,28.6,44.5,72.4,57.8c-10.1,44.6-5.6,80.1,14.2,91.5
		c4.6,2.7,9.9,3.9,15.8,3.9c19.3,0,44.5-13.8,70.1-37.6c25.6,23.7,50.8,37.4,70.1,37.4c5.9,0,11.2-1.3,15.9-3.9
		c19.7-11.4,24.2-46.8,14-91.3C356,411,384.4,389.4,384.4,366.6z M286.5,339.8c-0.9,2.6-1.9,5.2-2.9,7.8c-1.3-2.5-2.6-5.1-4-7.7
		c-1.7-3.1-3.4-6.1-5.2-9.2c-2.1-3.5-4.2-7-6.4-10.5c-1.2-2-2.5-4-3.8-6c9.9,1.5,19.6,3.3,28.7,5.6c0,0.2-0.1,0.3-0.1,0.5
		C291.1,326.7,288.9,333.2,286.5,339.8z M150.1,402.6c3.3,5.6,6.7,11.1,10.1,16.4c-9.9-1.5-19.6-3.3-28.7-5.5
		c2.6-9,5.8-18.4,9.4-27.7C143.7,391.3,146.8,396.9,150.1,402.6z M131.2,319.8c9.2-2.2,18.9-4.1,28.9-5.6
		c-3.4,5.4-6.9,10.9-10.1,16.6c-3.3,5.6-6.3,11.2-9.1,16.9C137.1,338.3,133.9,329,131.2,319.8z M149.1,366.9
		c4.3-9.4,9.3-18.8,14.5-28c5.5-9.4,11.1-18.5,16.9-26.8c10.4-0.9,21.1-1.4,31.8-1.4c0.5,0,1,0,1.4,0c9.9,0,19.7,0.5,29.3,1.3
		c0.3,0,0.6,0,0.8,0.1c0.2,0.2,0.3,0.5,0.5,0.7c5.5,7.9,10.9,16.4,16,25.2c0.1,0.2,0.3,0.5,0.4,0.7c5.3,9.2,10.2,18.6,14.6,27.9
		c-4.4,9.4-9.3,18.8-14.5,28c-5.5,9.4-11.1,18.5-16.9,26.8c-10.4,0.9-21.1,1.4-31.8,1.4c-10.6,0-21.2-0.5-31.6-1.3
		c-5.8-8.4-11.5-17.3-17-26.7C158.4,385.6,153.5,376.3,149.1,366.9z M274.4,402.3c3.3-5.6,6.3-11.3,9.1-16.9
		c3.8,9.4,7,18.8,9.7,27.9c-9.2,2.3-18.9,4.2-28.9,5.6C267.7,413.5,271.2,408,274.4,402.3z M277.1,229.4c1.7-0.3,3.4-0.4,5-0.4v0.1
		c3.3,0,5.8,0.7,8,1.8c9.1,5.2,13.3,24.3,10.9,49.2c-0.1,1.3-0.3,2.6-0.4,4c-0.8,6.6-2,13.5-3.6,20.6c-13.8-3.3-28.7-5.9-44.5-7.7
		c-9.4-13-19.3-24.7-29.2-35.1C243.7,243,262.9,231.6,277.1,229.4z M212,273c2.5,2.6,5,5.3,7.5,8.1c4,4.5,8,9.3,11.9,14.4
		c-1.8-0.1-3.5-0.1-5.3-0.2c-4.6-0.2-9.3-0.3-14-0.3c-2.3,0-4.7,0-7,0.1c-4.2,0.1-8.4,0.2-12.5,0.4c3-3.9,6.1-7.7,9.2-11.3
		C205.2,280.2,208.6,276.5,212,273z M133.9,230.9c2.1-1.3,4.8-1.8,8.1-1.8v0.1c14.3,0,35.4,11.2,57.8,31.6c0.4,0.3,0.8,0.7,1.1,1
		c-0.4,0.4-0.8,0.9-1.2,1.3c-9.5,10-18.8,21.3-27.8,33.7c-15.9,1.7-30.9,4.3-44.6,7.7c-1.6-7-2.8-13.8-3.7-20.4
		C120.3,257.3,124.4,236.5,133.9,230.9z M116.3,409.3c-7-2.2-13.6-4.5-19.7-7.1c-24.8-10.6-40.9-24.5-40.9-35.5
		c0-11,16-25,40.9-35.5c6-2.6,12.6-4.9,19.5-7.1c4,13.8,9.3,28.1,15.8,42.7C125.4,381.3,120.3,395.6,116.3,409.3z M142.3,504.4
		c-3.2-0.1-5.8-0.8-7.9-1.9c-9.5-5.5-13.7-26.3-10.4-53.1c0.8-6.6,2-13.5,3.6-20.6c13.8,3.3,28.7,5.9,44.5,7.7
		c9.4,13,19.3,24.7,29.2,35.1C178.3,492.7,156.9,504.4,142.3,504.4z M212.4,460.3c-6.5-6.8-13-14.2-19.5-22.5
		c6.4,0.3,12.8,0.5,19.3,0.5c6.6,0,13.1-0.2,19.5-0.5C225.4,446.1,218.9,453.5,212.4,460.3z M290.6,502.2c-2.1,1.3-4.8,1.8-8.1,1.8
		c-14.5,0-36.1-11.6-58.9-32.7c9.9-10.3,19.6-22.1,29-35c15.9-1.7,30.9-4.3,44.6-7.7c1.6,6.9,2.9,13.8,3.7,20.3
		C304.1,475.8,300.1,496.6,290.6,502.2z M327.8,402.2c-6,2.6-12.6,4.9-19.5,7.1c-4-13.8-9.3-28.1-15.8-42.7
		c4.4-10,8.2-19.8,11.4-29.3c1.5-4.5,2.9-8.9,4.1-13.2c6.8,2.1,13.2,4.5,19.2,7c0.2,0.1,0.3,0.1,0.5,0.2
		c24.8,10.6,40.9,24.5,40.9,35.5C368.8,377.7,352.6,391.6,327.8,402.2z"/>
	<circle class="st3" cx="212.2" cy="366.6" r="32.1"/>
</g>
</svg>
