<?xml version="1.0" encoding="utf-8"?>
<!-- Generator: Adobe Illustrator 21.0.0, SVG Export Plug-In . SVG Version: 6.00 Build 0)  -->
<svg version="1.1" id="Calque_1" xmlns="http://www.w3.org/2000/svg" xmlns:xlink="http://www.w3.org/1999/xlink" x="0px" y="0px"
	 viewBox="0 0 595.3 595.3" style="enable-background:new 0 0 595.3 595.3;" xml:space="preserve">
<style type="text/css">
	.st0{fill:#757576;}
	.st1{fill:#A4A3A4;}
	.st2{fill:#FFC947;}
</style>
<path class="st0" d="M595.3,298.2c0,164.2-133.1,297.3-297.3,297.3c-13.5,0-26.9-0.9-39.9-2.7c-55.5-7.4-106.1-30.2-147.5-63.8
	C43.6,474.5,0.7,391.3,0.7,298.2C0.7,134,133.8,0.9,298,0.9C405.5,0.9,499.8,58,552,143.5c1.8,2.9,3.5,5.8,5.1,8.7
	C581.4,195.3,595.3,245.1,595.3,298.2z"/>
<path class="st1" d="M595.3,298.2c0,164.2-133.1,297.3-297.3,297.3c-13.5,0-26.9-0.9-39.9-2.7c-55.5-7.4-106.1-30.2-147.5-63.8
	L100,479.7l2.3-60.7L88,346l74.9-30.9c9.5,4.2,17.8,2.5,24.1-8.1l47.3-23.3l32.7-11.3l7.3-6c10.5,2.5,18.8,2,20.7-8l90.7-29.3
	l-9.3-6.7c12.3-9.9,22.3-20.3,14.8-34.3l10.6-19.1l79.3-40.7l14.8-11.8C495.8,116.6,595,298,595.3,298.2z"/>
<g id="php7_5_">
	<path class="st2" d="M123.2,317.8c15.7-6.8,29-7.5,39.7-2.7c10.7,4.8,18.1,14.6,22,29.2c1.9,6.7,2.7,13.6,2.4,21
		c-0.3,7.3-2.1,14.6-5.3,21.7c-3.9,9-9.2,15.9-16,20.8c-6.8,4.9-14.2,9.1-22.4,12.6l-24,10.3l8.1,36.9l-27.7,12L69.7,340.9
		L123.2,317.8z M102.3,351.1l12.6,57.9c1-0.3,4.5-1.7,5.4-2.1c12.8-5.4,23.8-10.2,30.3-17.2c7-7.6,9.4-17.1,5.5-33.1
		c-3.3-13.3-9-18.9-17.2-18.6c-3.7,0.1-7.2,0.9-11.4,2.2c-5,1.5-10.9,4.5-16.7,7.1C109.4,348.1,102.3,351.1,102.3,351.1z"/>
	<path class="st2" d="M203.8,242.6l8.1,36.9l24.8-10.7c13.8-5.3,24.9-7.5,33.8-5.7c8.9,1.8,15,9.9,18.3,24.3l14,64.3l-27.9,12.1
		l-13.4-61.4c-1.4-6.4-3.7-10.4-7-12c-3.3-1.6-8.4-1.1-15.5,2l-22.2,9.2l17.4,79.8l-27.5,11.9l-30.3-138.8L203.8,242.6z"/>
	<path class="st2" d="M346.2,221.5c15.7-6.8,29-7.5,39.7-2.7c10.7,4.8,18.1,14.6,22,29.2c1.9,6.7,2.7,13.6,2.4,21
		c-0.3,7.3-2.1,14.6-5.3,21.7c-3.9,9-9.2,15.9-16,20.8c-6.8,4.9-14.2,9.1-22.4,12.6l-24,10.3l8.1,36.9l-27.7,12l-30.3-138.8
		L346.2,221.5z M325.3,254.8l12.6,57.9c1-0.3,4.5-1.7,5.4-2.1c12.8-5.4,23.8-10.2,30.3-17.2c7-7.6,9.4-17.1,5.5-33.1
		c-3.3-13.3-9-18.9-17.2-18.6c-3.7,0.1-7.2,0.9-11.4,2.2c-5,1.5-10.9,4.5-16.7,7.1C332.5,251.8,325.3,254.8,325.3,254.8z"/>
	<path class="st2" d="M391.1,188.1l-9.5-22.2l114.3-49.3l9.6,22.2l-31.5,139.1l-34.6,14.9l34.3-140.4L391.1,188.1z"/>
</g>
</svg>
