<?xml version="1.0" encoding="utf-8"?>
<!-- Generator: Adobe Illustrator 21.0.0, SVG Export Plug-In . SVG Version: 6.00 Build 0)  -->
<svg version="1.1" id="Calque_1" xmlns="http://www.w3.org/2000/svg" xmlns:xlink="http://www.w3.org/1999/xlink" x="0px" y="0px"
	 viewBox="0 0 595.3 595.3" style="enable-background:new 0 0 595.3 595.3;" xml:space="preserve">
<style type="text/css">
	.st0{fill:#757576;}
	.st1{fill:#A4A3A4;}
	.st2{fill:#FFC947;}
</style>
<path class="st0" d="M595.3,298.2c0,12.7-0.8,25.3-2.4,37.6c-14.3,113.4-92.5,206.9-197.3,243.3c-30.6,10.6-63.4,16.4-97.6,16.4
	c-6.5,0-12.9-0.2-19.2-0.6c-7-0.4-13.9-1.1-20.7-2.1c-3.2-0.4-6.4-0.9-9.6-1.4c-33-5.5-64.2-16.5-92.5-32
	c-16.1-8.8-31.3-19-45.3-30.4C43.6,474.5,0.7,391.3,0.7,298.2C0.7,134,133.8,0.9,298,0.9C405.5,0.9,499.8,58,552,143.5
	c1.8,2.9,3.5,5.8,5.1,8.7c2,3.6,4,7.2,5.9,10.9c16.9,33,27.7,69.5,31.2,108.2c0,0.1,0,0.1,0,0.2
	C594.9,280.3,595.3,289.2,595.3,298.2z"/>
<path class="st1" d="M595.3,298.2c0,12.7-0.8,25.3-2.4,37.6c-14.3,113.4-92.5,206.9-197.3,243.3l-139.3-85l-27.5-34.8L368,441
	l68-182l-207-83l-4-14.3l9-28.9l20-19.6l18.8,1.3l19.5-19.8l5.5,0.9l7.5,2l23.2,13.6L343,111l9.9-0.8l7.6,2l6.8,9l15.3,18.5
	l14.3-1.8l9.8-9.5l12-0.9l13.2,6.4l12.6,0.5l118.6,28.7c16.9,33,27.7,69.5,31.2,108.2c0,0.1,0,0.1,0,0.2
	C594.9,280.3,595.3,289.2,595.3,298.2z"/>
<path class="st2" d="M247.5,82.3l17.2,4.6l-4.5,17l15.8,4.2l4.5-17l17.2,4.6l-13.7,51.6l-17.2-4.6l4.6-17.3l-15.8-4.2l-4.6,17.3
	l-17.2-4.6L247.5,82.3L247.5,82.3z M315.9,118.8l-15.2-4l4.5-17.1l47.6,12.6l-4.5,17.1l-15.2-4l-9.1,34.5l-17.2-4.6L315.9,118.8
	L315.9,118.8L315.9,118.8z M360.4,112.2l18,4.8l6.3,21.1l15.9-15.2l18,4.8l-13.7,51.6l-17.2-4.5l6.8-25.6l-16.7,15.2l-0.3-0.1
	l-7-21.5l-6.8,25.6l-16.9-4.5L360.4,112.2z M427.1,129.9l17.3,4.6l-9.1,34.5l24.3,6.4l-4.5,17.1l-41.5-11L427.1,129.9L427.1,129.9z"
	/>
<path class="st2" d="M202.4,150.9l-48.6,283.2l102.6,60l119.2-1.4l98-270.1L202.4,150.9z M404.6,274.7l-6.1,16.8l-2.7,7.4
	l-129.9-34.4l-6.1,35.6l44.8,11.9l0.1,0l78.8,20.9l-3.2,8.9L348.6,429l-2,5.6l-74.5,0.9l0,0l-0.2,0l-64.4-37.7l9.4-54.5l34.1,9v0
	l-4.8,27.7l35.1,20.2l0,0l0,0l40.6-0.2l15.6-43l-41.7-11l-0.1,0l-75.8-20.1l16.4-95.7l1.6-9.3l170,45L404.6,274.7z"/>
</svg>
