<?xml version="1.0" encoding="utf-8"?>
<!-- Generator: Adobe Illustrator 21.0.0, SVG Export Plug-In . SVG Version: 6.00 Build 0)  -->
<svg version="1.1" id="Calque_3" xmlns="http://www.w3.org/2000/svg" xmlns:xlink="http://www.w3.org/1999/xlink" x="0px" y="0px"
	 viewBox="0 0 500 500" style="enable-background:new 0 0 500 500;" xml:space="preserve">
<style type="text/css">
	.st0{fill:#FFD149;}
	.st1{fill:#FFA000;}
</style>
<g>
	<path class="st0" d="M249.9,121.2c-68.6,0-124.3,54.6-126.3,122.7c16.2-37.4,53.4-63.7,96.8-63.7c58.2,0,105.4,47.2,105.4,105.4
		c0,34.2-16.3,64.4-41.5,83.7c53.1-15,92.1-63.7,92.1-121.6C376.4,177.8,319.8,121.2,249.9,121.2z"/>
</g>
<g>
	<path class="st1" d="M225.3,375.2c39.9,9.1,79.5-15.2,89.7-54.6c-14.4,19.6-39.5,29.9-64.7,24.2c-33.8-7.7-55-41.4-47.3-75.3
		c4.5-19.9,18-35.3,35.2-43.1c-32.9,1.7-62,24.8-69.7,58.5C159.3,325.5,184.7,366,225.3,375.2z"/>
</g>
<g>
	<path class="st0" d="M277.6,229.4c-21.4-10.2-46.9-1.4-57.7,19.6c10.6-9.3,26.1-12,39.7-5.5c18.2,8.6,25.9,30.4,17.3,48.6
		c-5.1,10.7-14.7,17.7-25.4,20c18.8,3.2,38.2-6.2,46.8-24.3C308.7,265.8,299.5,239.7,277.6,229.4z"/>
</g>
<g>
	<path class="st1" d="M252.1,262c-9.5-4.5-20.9-0.6-25.6,8.7c4.7-4.1,11.6-5.3,17.6-2.5c8.1,3.8,11.5,13.5,7.7,21.6
		c-2.3,4.7-6.5,7.9-11.3,8.9c8.4,1.4,17-2.8,20.8-10.8C265.9,278.2,261.8,266.6,252.1,262z"/>
</g>
</svg>
