<?xml version="1.0" encoding="utf-8"?>
<!-- Generator: Adobe Illustrator 21.0.0, SVG Export Plug-In . SVG Version: 6.00 Build 0)  -->
<svg version="1.1" id="Calque_1" xmlns="http://www.w3.org/2000/svg" xmlns:xlink="http://www.w3.org/1999/xlink" x="0px" y="0px"
	 viewBox="0 0 500 500" style="enable-background:new 0 0 500 500;" xml:space="preserve">
<style type="text/css">
	.st0{fill:#C67100;}
	.st1{fill:#FFA000;}
	.st2{fill:#FFD149;}
</style>
<path class="st0" d="M184.4,285.1l-19.3,0.1c5.5,4.4,12.2,7.4,19.4,8.4L184.4,285.1z M140.2,285.4l-5,0l-0.1-9.4
	c-2.7-6.5-4.2-13.7-4.3-21.4c0-7.7,1.4-14.9,4.1-21.4l-0.2-44l-19.1,0.1l0.6,113.6l42.4-0.2C151.2,298.3,144.9,292.4,140.2,285.4z"
	/>
<path class="st1" d="M211.7,287.9c-6.1,3.9-13.4,6.2-21.2,6.2c-2,0-4.1-0.1-6.1-0.4l0,8.8l-25.9,0.1c9.1,5.4,20,8.4,31.8,8.4
	c12.3-0.1,23.6-3.5,32.9-9.4C218.5,298,214.5,293.4,211.7,287.9z M224.8,208.2l0.1,26.6c3.2,5.7,5.1,12.3,5.1,19.4
	c0,6.4-1.4,12.5-4.1,17.9c1.7,7.5,5.6,13.4,11.4,17.1c7.6-9.6,12.1-21.7,12-35C249.2,234.7,239.7,218.2,224.8,208.2z M190.1,214.9
	c5.6,0,11,1.1,15.9,3.1l-0.1-18.2c-5.1-1.3-10.5-1.9-16-1.9c-25.4,0.1-46.4,14.3-54.9,35.2l0.2,42.8c1.4,3.3,3.1,6.4,5,9.4l24.8-0.1
	c-9-7.2-14.9-18.2-15-30.7C149.9,232.3,168,215,190.1,214.9z"/>
<path class="st2" d="M225,263.7l-0.1-29c-4.3-7.5-10.9-13.3-18.9-16.7l0.2,45.8c0.1,9.2,1.9,17.3,5.5,24.1c6.1-3.9,11-9.4,14.3-15.9
	C225.4,269.4,225.1,266.7,225,263.7z M224.7,198.3l-18.8,0.1l0,1.5c6.9,1.7,13.3,4.6,18.9,8.3L224.7,198.3z M225,263.7l-0.1-29
	c-4.3-7.5-10.9-13.3-18.9-16.7l0.2,45.8c0.1,9.2,1.9,17.3,5.5,24.1c6.1-3.9,11-9.4,14.3-15.9C225.4,269.4,225.1,266.7,225,263.7z
	 M225,263.7l-0.1-29c-4.3-7.5-10.9-13.3-18.9-16.7l0.2,45.8c0.1,9.2,1.9,17.3,5.5,24.1c6.1-3.9,11-9.4,14.3-15.9
	C225.4,269.4,225.1,266.7,225,263.7z M284.5,265.6c-0.7,17.7-11.8,28.1-29.3,28.2c-7,0-13.1-1.6-17.9-4.7c-3.9,4.9-8.6,9.1-14,12.5
	c8.1,6,18.9,9.2,31.8,9.1c18.2-0.1,32.1-6.7,40.2-18.3L284.5,265.6z M225,263.7l-0.1-29c-4.3-7.5-10.9-13.3-18.9-16.7l0.2,45.8
	c0.1,9.2,1.9,17.3,5.5,24.1c6.1-3.9,11-9.4,14.3-15.9C225.4,269.4,225.1,266.7,225,263.7z M225,263.7l-0.1-29
	c-4.3-7.5-10.9-13.3-18.9-16.7l0.2,45.8c0.1,9.2,1.9,17.3,5.5,24.1c6.1-3.9,11-9.4,14.3-15.9C225.4,269.4,225.1,266.7,225,263.7z
	 M303.1,197.9l-18.8,0.1l0.1,17.9l19.1,49.4c0-0.7,0-1.4,0-2L303.1,197.9z M225,263.7l-0.1-29c-4.3-7.5-10.9-13.3-18.9-16.7
	l0.2,45.8c0.1,9.2,1.9,17.3,5.5,24.1c6.1-3.9,11-9.4,14.3-15.9C225.4,269.4,225.1,266.7,225,263.7z"/>
<path class="st0" d="M284.3,215.9l-8.4-21.8l-20.3,0.1l28.9,71.3c0.1-0.7,0.1-1.4,0.1-2.2L284.3,215.9z M341.3,204.2l-30.4,80.6
	l-7.5-19.5c-0.3,10.7-3.1,19.8-8,27l5.4,13.5l19.5-0.1l21.3-53.5L341.3,204.2z"/>
<path class="st1" d="M402.4,206.3c0.6,0,1.1,0,1.7,0l-0.1-13.5c-17.6,0.1-31,8.1-38.5,23.3l-0.1-22.2h-0.6l-23.3,58.4l0.3,53.4
	l24.1-0.1l0-9.3c-9.4-9-14.8-22.1-14.9-37.6C350.9,227.6,372.1,206.6,402.4,206.3z M341.3,193.9l0.1,10.2l3.9-10.3L341.3,193.9z"/>
<path class="st2" d="M404.1,206.3l0.1,9.6c-22.5-1.1-36.7,12.2-38.5,31.3l0.3,49c9.1,8.8,22.1,13.8,37.6,13.7
	c17.7-0.1,32.2-6.5,42.1-17.5L433.9,280c-7.4,7.7-17.6,12-28.7,12c-16.1,0.1-28.2-9.6-31.8-25.4l77.1-0.4
	C452.9,230,438.7,206.8,404.1,206.3z M372.9,250.6c2.4-16.3,13.7-26.5,29.8-26.6c16.7-0.1,27.7,9.8,28.5,26.3L372.9,250.6z"/>
<polygon class="st0" points="104.9,218.6 104.9,210.7 100.8,214.6 "/>
<polygon class="st0" points="97,231.2 103.7,224.8 97,218.3 90.3,224.8 "/>
<polygon class="st1" points="85.6,242.2 93.2,234.9 86.5,228.4 78.8,235.7 "/>
<polygon class="st0" points="103.7,266.9 97,260.5 90.3,266.9 97,273.4 "/>
<polygon class="st1" points="93.2,256.8 85.6,249.5 78.8,256 86.5,263.3 "/>
<polygon class="st1" points="75,252.3 81.8,245.8 75,239.4 68.3,245.8 "/>
<polygon class="st0" points="104.9,238.8 104.9,230.9 100.8,234.9 "/>
<polygon class="st2" points="53.2,238.7 45.8,245.8 53.2,253 60.7,245.8 "/>
<polygon class="st0" points="97,253.1 104.6,245.8 97,238.5 89.4,245.8 "/>
<polygon class="st0" points="104.9,252.9 100.8,256.8 104.9,260.7 "/>
<polygon class="st1" points="82.7,266.9 75,259.6 67.6,266.8 75.2,274.1 "/>
<polygon class="st0" points="104.9,273.1 100.8,277 104.9,281 "/>
<polygon class="st0" points="104.6,288 97,280.7 89.5,287.8 97.1,295.2 "/>
<polygon class="st2" points="71.2,256 64.5,249.5 57.1,256.7 63.8,263.1 "/>
<polygon class="st0" points="104.9,196.7 104.9,189.1 100.9,192.9 "/>
<polygon class="st0" points="100.9,298.8 104.9,302.6 104.9,295 "/>
<polygon class="st1" points="93.2,277 86.5,270.6 79,277.7 85.7,284.2 "/>
<polygon class="st2" points="64.5,242.2 71.2,235.7 63.8,228.6 57.1,235 "/>
<polygon class="st1" points="86.5,221.1 93.2,214.6 85.7,207.5 79,213.9 "/>
<polygon class="st0" points="89.5,203.8 97,211 104.6,203.7 97.1,196.5 "/>
<polygon class="st1" points="75,232.1 82.7,224.8 75.2,217.6 67.6,224.9 "/>
</svg>
