<?xml version="1.0" encoding="utf-8"?>
<!-- Generator: Adobe Illustrator 21.0.0, SVG Export Plug-In . SVG Version: 6.00 Build 0)  -->
<svg version="1.1" id="Calque_3_-_copie_3" xmlns="http://www.w3.org/2000/svg" xmlns:xlink="http://www.w3.org/1999/xlink" x="0px"
	 y="0px" viewBox="0 0 500 500" style="enable-background:new 0 0 500 500;" xml:space="preserve">
<style type="text/css">
	.st0{fill:#FFA000;}
	.st1{fill:#FFD149;}
</style>
<path class="st0" d="M343.9,119.7H156.1c-20.1,0-36.5,16.3-36.5,36.5v187.8c0,20.1,16.3,36.5,36.5,36.5h187.8
	c20.1,0,36.5-16.3,36.5-36.5V156.1C380.3,136,364,119.7,343.9,119.7z M168.5,269.9c7.8-2.3,14.2,4.1,14.2,4.1s-4.3-1.9-11.8-0.2
	c-7.5,1.7-11.6,13.5-11.6,13.5s8.9,8.8,16.4,7c7.4-1.7,11.1-5,11.1-5s-2.9,8.5-11.3,10.5c-14.9,3.4-27.7-9.3-27.7-9.3
	S153.6,273.3,168.5,269.9z M190.9,336c-13,13-34.1,8.1-34.1,8.1s-4.9-21.2,8.1-34.2c6.5-7.3,17.1-4.8,17.1-4.8s-5.7,0.8-12.2,7.3
	c-6.5,6.5-3.3,21.1-3.3,21.1s14.6,3.3,21.2-3.3c6.5-6.5,8.1-12.2,8.1-12.2S198.2,328.6,190.9,336z M230.2,332.2
	c-3.9,14.8-21.1,20.2-21.1,20.2s-12.4-13.1-8.5-27.9c1.6-8,10.2-10.6,10.2-10.6s-3.7,3-5.7,10.4c-1.9,7.4,6.5,16.5,6.5,16.5
	s11.9-3.8,13.8-11.2c2-7.4,0.7-12.2,0.7-12.2S232.3,323.9,230.2,332.2z M318.6,232.2c-17.9,17.9-42.7,33.5-63.4,45.7l6,30.2
	L241.4,328l-11.7-23.3c-3.4,3.9-5.3,6.9-5.3,6.9l-10.1-2.7c0,0-1-3.5-1.4-9.4c-5.2,1.8-8.6,3.5-8.6,3.5l-7.4-7.4
	c0,0,0.9-3.5,3.5-8.9c-5.5-1.3-9.5-1.7-9.5-1.7l-2.3-10.2c0,0,2.2-2,6.3-4.8l-23-11.5l19.9-19.9l30.2,7.2
	c12.2-21.7,27.9-45.4,47-63.3c39.8-39.8,83.1-34.8,83.1-34.8S357.1,192.5,318.6,232.2z"/>
<path class="st0" d="M209.4,303.6L209.4,303.6C209.4,303.5,209.4,303.6,209.4,303.6L209.4,303.6z"/>
<ellipse transform="matrix(0.7071 -0.7071 0.7071 0.7071 -70.4243 261.8964)" class="st1" cx="280.9" cy="216" rx="21" ry="8"/>
<circle class="st1" cx="315.6" cy="182" r="15.2"/>
</svg>
