<?xml version="1.0" encoding="utf-8"?>
<!-- Generator: Adobe Illustrator 21.0.0, SVG Export Plug-In . SVG Version: 6.00 Build 0)  -->
<svg version="1.1" xmlns="http://www.w3.org/2000/svg" xmlns:xlink="http://www.w3.org/1999/xlink" x="0px" y="0px"
	 viewBox="0 0 1142.2 781.1" style="enable-background:new 0 0 1142.2 781.1;" xml:space="preserve">
<style type="text/css">
	.st0{opacity:0.1;fill:#FFA000;enable-background:new    ;}
	.st1{fill:#FFA000;}
	.st2{opacity:0.1;}
	.st3{fill:#67647E;}
	.st4{opacity:0.1;enable-background:new    ;}
	.st5{fill:none;stroke:#535461;stroke-miterlimit:10;}
	.st6{opacity:0.2;fill:#F5F5F5;enable-background:new    ;}
	.st7{fill:none;stroke:#535461;stroke-width:2;stroke-miterlimit:10;}
	.st8{fill:#A8A8A8;}
	.st9{opacity:0.2;enable-background:new    ;}
	.st10{fill:#FFD037;}
	.st11{opacity:0.2;fill:#FFFFFF;enable-background:new    ;}
	.st12{opacity:5.000000e-02;fill:#00FF00;enable-background:new    ;}
</style>
<g id="_x30_3e1230c-83b1-446f-8c84-17d4af0f793a">
	<title>friendship</title>
	<path class="st0" d="M1141,327.7c-6.9,28.1-42.6,42.3-62.6,63.3c-37.7,39.6-23,97.4,0.9,143.7c8,15.5,17.1,31.9,13.7,48.5
		c-4.1,20.3-26.1,35.2-49.1,43.1c-42,14.3-92.3,10.9-130.9-8.9c-33.4-17.2-57.3-45-91.2-61.4c-56.8-27.4-129.1-17-190.7,1.8
		c-43.6,13.3-91.3,30.7-134.7,16.8c-30.5-9.8-51.6-33.7-63.1-59c-5.5-12.2-9.6-25.5-20.2-35.2c-6.3-5.8-14.5-9.9-22.9-13.3
		c-76.9-31.5-174-14.6-248.6-49.6c-50.4-23.6-82.7-68.1-97-114.5s-12.6-95.1-9-142.9c2.6-34,7.2-70.2,33.5-96.4
		c27.8-27.7,75.4-38,118.5-32.8S269.7,55,304.1,77.1c43,27.7,82.8,62.1,135.5,73.3c35.9,7.6,73.7,3.4,110.7,2
		c61.9-2.4,123.9,3,185.4,8.8c30,2.9,60.1,5.9,89.8,10.2c6.7,1,13.3,2,20,3.1c3.3,0.6,6.7,1.2,10,1.8c2.6,0.5,5.2,1,7.8,1.5
		c4.1,0.8,8.2,1.6,12.2,2.5c11.7,2.5,23.2,5.3,34.6,8.6c39.7,11.2,71.6,31.6,109.1,45.8c24.5,9.3,51.1,11.8,74.3,23.6
		C1122.1,272.8,1148.3,298.1,1141,327.7z"/>
	<circle class="st1" cx="940" cy="375.5" r="102.2"/>
	<circle class="st1" cx="831.2" cy="347.6" r="102.2"/>
	<circle class="st1" cx="711.5" cy="348.6" r="102.2"/>
	<circle class="st1" cx="672.7" cy="375.5" r="102.2"/>
	<circle class="st1" cx="606.8" cy="384.5" r="102.2"/>
	<circle class="st1" cx="579.9" cy="303.7" r="102.2"/>
	<circle class="st1" cx="609.8" cy="209.9" r="102.2"/>
	<circle class="st1" cx="666.7" cy="209.9" r="102.2"/>
	<circle class="st1" cx="699.6" cy="168.1" r="102.2"/>
	<circle class="st1" cx="783.4" cy="213.9" r="102.2"/>
	<circle class="st1" cx="978.8" cy="303.7" r="102.2"/>
	<circle class="st1" cx="920" cy="252.8" r="102.2"/>
	<circle class="st1" cx="882.1" cy="202" r="102.2"/>
	<circle class="st1" cx="810.3" cy="125.2" r="102.2"/>
	<circle class="st1" cx="943.9" cy="209.9" r="102.2"/>
	<g class="st2">
		<circle cx="940" cy="375.5" r="102.2"/>
		<circle cx="831.2" cy="347.6" r="102.2"/>
		<circle cx="711.5" cy="348.6" r="102.2"/>
		<circle cx="672.7" cy="375.5" r="102.2"/>
		<circle cx="606.8" cy="384.5" r="102.2"/>
		<circle cx="579.9" cy="303.7" r="102.2"/>
		<circle cx="609.8" cy="209.9" r="102.2"/>
		<circle cx="666.7" cy="209.9" r="102.2"/>
		<circle cx="699.6" cy="168.1" r="102.2"/>
		<circle cx="783.4" cy="213.9" r="102.2"/>
		<circle cx="978.8" cy="303.7" r="102.2"/>
		<circle cx="920" cy="252.8" r="102.2"/>
		<circle cx="882.1" cy="202" r="102.2"/>
		<circle cx="810.3" cy="125.2" r="102.2"/>
		<circle cx="943.9" cy="209.9" r="102.2"/>
	</g>
	<path class="st3" d="M889.5,554.7c0,0,62.5-52.5,31.6-127.3l-30.9-11.6L856.6,519L889.5,554.7z"/>
	<path class="st4" d="M892.8,412.2l7.4,2.8l-32.9,101.4l28.7,31.1c-2.4,2.4-3.9,3.6-3.9,3.6l-32.9-35.6L892.8,412.2z"/>
	<ellipse class="st0" cx="579.5" cy="687.9" rx="556.5" ry="93.2"/>
	<path class="st1" d="M1007.8,543.6c0,0-20.3,20.3-8.8,50.5c11.5,30.2-19.7,80.3-19.7,80.3l1-0.2c41.7-7.4,62.5-55.1,39.3-90.6
		C1010.9,570.5,1003.8,555.1,1007.8,543.6z"/>
	<path class="st5" d="M1007.8,543.6c0,0-11.5,24.9,0,45.3s2,77.4-28.5,85.6"/>
	<path class="st1" d="M1044.1,625.9c0,0-23.2-3.7-25.3,17.1s-44.6,23.7-44.6,23.7l0.8,0.5c35.1,23,68.6,14.7,63.6-15.9
		C1036.6,639.9,1036.8,628.5,1044.1,625.9z"/>
	<path class="st6" d="M1044.1,625.9c0,0-23.2-3.7-25.3,17.1s-44.6,23.7-44.6,23.7l0.8,0.5c35.1,23,68.6,14.7,63.6-15.9
		C1036.6,639.9,1036.8,628.5,1044.1,625.9z"/>
	<path class="st5" d="M1044.1,625.9c0,0-18,4-16.5,20.3s-26.7,36-53.4,20.4"/>
	<path class="st3" d="M607.2,445.3l8.1,32.5c0,0,57.4,7.5,95.6,2.8c6.8-1,13.3-3.3,19.1-6.9c3.2-1.9,8.3-2.7,15.3,2.5
		c11.9,9,70.5,81,61,155.7c-1.5,11.6-10.6,20.7-22.2,22.2l0,0c-11.7,1.6-22.9,5.8-32.7,12.4l-29,19.3l297.3-6.5L989,641.9
		c0,0-21.1-17.9-37.4-19.5c-4.7-0.5-8.7-4.8-11.8-10.7c-18.5-34.7-40.7-67.2-64.7-98.3c-17.5-22.7-32.2-46.5-30.8-61.5
		c3.3-35.8,0-94.2,0-94.2l-61.7-8.1c0,0,8.1,78-66.6,97.5C641.3,466.4,607.2,445.3,607.2,445.3z"/>
	<g class="st2">
		<path d="M657.6,459.9c0,0,34.1,21.1,108.9,1.6s66.6-97.5,66.6-97.5l11.8,1.5c-0.2-5-0.4-8-0.4-8l-61.7-8.1c0,0,8.1,78-66.6,97.5
			s-108.9-1.6-108.9-1.6l8.1,32.5c0,0,21.9,2.9,47.7,3.9L657.6,459.9z"/>
		<path d="M801.9,681.1c9.8-6.5,21-10.8,32.7-12.4l0,0c11.5-1.5,20.6-10.6,22.2-22.2c9.5-74.7-49.1-146.8-61-155.8
			c-13-9.8-19.5,1.6-19.5,1.6c-4.6,1.2-9.3,2.1-14,2.7c21.1,28,51.2,81.7,44.1,136.9c-1.5,11.5-10.6,20.6-22.2,22.2l0,0
			c-11.7,1.6-22.9,5.8-32.7,12.4l-29,19.3l74.8-1.6L801.9,681.1z"/>
	</g>
	<path class="st7" d="M657,602.9c0,0-6.2-21.1,1.2-36.6c3.1-6.5,4.1-13.8,2.7-20.9c-0.7-3.4-1.7-6.6-3-9.8"/>
	<path class="st1" d="M662.5,525.8c0,2.6-4.7,10.1-4.7,10.1s-4.7-7.5-4.7-10.1c0-2.6,2.1-4.7,4.7-4.7
		C660.4,521.1,662.5,523.2,662.5,525.8C662.5,525.8,662.5,525.8,662.5,525.8L662.5,525.8z"/>
	<path class="st1" d="M670.2,540.1c-1.4,2.2-9.4,5.9-9.4,5.9s0.2-8.8,1.5-11c1.3-2.2,4.2-2.9,6.4-1.6s2.9,4.2,1.6,6.4
		C670.3,540,670.2,540,670.2,540.1L670.2,540.1z"/>
	<path class="st1" d="M669.8,564.5c-2.3,1.2-11.1,0.4-11.1,0.4s4.6-7.5,6.9-8.7c2.3-1.2,5.1-0.2,6.3,2.1
		C673.1,560.6,672.2,563.4,669.8,564.5L669.8,564.5z"/>
	<path class="st1" d="M665.4,583c-2.1,1.5-10.9,2.2-10.9,2.2s3.2-8.2,5.3-9.8c2.1-1.5,5-0.9,6.5,1.2
		C667.7,578.8,667.3,581.5,665.4,583z"/>
	<path class="st1" d="M651,546.5c1.8,1.8,10.5,3.7,10.5,3.7s-2.1-8.6-4-10.4c-1.9-1.7-4.9-1.6-6.6,0.3
		C649.2,542,649.2,544.8,651,546.5L651,546.5z"/>
	<path class="st1" d="M646.1,568.2c2.3,1.2,11.1,0.4,11.1,0.4s-4.6-7.5-6.9-8.7c-2.3-1.2-5.1-0.2-6.3,2.1
		C642.8,564.2,643.8,567,646.1,568.2L646.1,568.2L646.1,568.2z"/>
	<path class="st1" d="M644.2,589.9c2.1,1.5,10.9,2.2,10.9,2.2s-3.2-8.2-5.3-9.8c-2.1-1.5-5-0.9-6.5,1.2
		C641.9,585.6,642.3,588.3,644.2,589.9z"/>
	<path class="st8" d="M643.5,600.8c0,0,11.3-2.3,14.4-5.3s16.6-8.3,18.2-4.5s20.4,16.6,7.6,18.9s-30.3,3-34,1.5
		S643.5,600.8,643.5,600.8z"/>
	<path class="st9" d="M683.5,608.5c-12.9,2.3-30.3,3-34,1.5c-2.9-1.2-4.9-6.7-5.7-9.3l-0.4,0.1c0,0,2.3,9.1,6,10.6s21.2,0.8,34-1.5
		c3.7-0.7,4.8-2.2,4.4-4.1C687.6,607.1,686.3,608,683.5,608.5z"/>
	<path class="st8" d="M831.6,672c0,0,34.4-6.9,43.6-16.1s50.5-25.3,55.1-13.8s62,50.5,23,57.4s-91.8,9.2-103.3,4.6
		S831.6,672,831.6,672z"/>
	<path class="st9" d="M953.3,695.3c-39,6.9-91.8,9.2-103.3,4.6c-8.7-3.5-14.8-20.3-17.2-28.1l-1.2,0.2c0,0,6.9,27.5,18.4,32.1
		s64.3,2.3,103.3-4.6c11.3-2,14.5-6.7,13.3-12.6C965.6,690.8,961.7,693.8,953.3,695.3z"/>
	<path class="st1" d="M1064.7,476.3c-0.1,4.1-1.4,8.1-3.7,11.5c-2.3-3.4-3.6-7.4-3.8-11.5c0-6.3,1.6-11.5,3.7-11.5
		S1064.6,470,1064.7,476.3z"/>
	<path class="st1" d="M782.4,470.8c-0.1,4.1-1.4,8.1-3.7,11.5c-2.3-3.4-3.6-7.4-3.7-11.5c0-6.3,1.7-11.5,3.7-11.5
		S782.4,464.4,782.4,470.8z"/>
	<path class="st1" d="M1090,584.1c2.3,3.4,3.6,7.4,3.7,11.5c-3.9-1.4-7.3-3.9-9.8-7.1c-3.7-5.1-5.4-10.3-3.7-11.5
		S1086.3,579,1090,584.1z"/>
	<path class="st1" d="M970.6,523.9c-0.1,4.1-1.4,8.1-3.7,11.5c-2.3-3.4-3.6-7.4-3.7-11.5c0-6.3,1.7-11.5,3.7-11.5
		S970.6,517.5,970.6,523.9z"/>
	<path class="st1" d="M900.7,485.7c-0.1,4.1-1.4,8.1-3.7,11.5c-2.3-3.4-3.6-7.4-3.7-11.5c0-6.3,1.7-11.5,3.7-11.5
		S900.7,479.3,900.7,485.7z"/>
	<path class="st1" d="M857.3,509c1.9,3.6,2.8,7.7,2.5,11.8c-3.7-1.8-6.8-4.6-9-8.1c-3.2-5.5-4.3-10.8-2.5-11.8
		S854.2,503.5,857.3,509z"/>
	<path class="st1" d="M825,614.6c-3.1,2.7-6.9,4.5-11,5.1c0.9-4,2.9-7.7,5.8-10.6c4.6-4.3,9.5-6.6,11-5.1S829.6,610.3,825,614.6z"/>
	<path class="st4" d="M825,614.6c-3.1,2.7-6.9,4.5-11,5.1c0.9-4,2.9-7.7,5.8-10.6c4.6-4.3,9.5-6.6,11-5.1S829.6,610.3,825,614.6z"/>
	<path class="st1" d="M893,608.1c-3.1,2.7-6.9,4.5-11,5.1c0.9-4,2.9-7.7,5.8-10.6c4.6-4.3,9.5-6.6,11-5.1S897.6,603.7,893,608.1z"/>
	<path class="st4" d="M893,608.1c-3.1,2.7-6.9,4.5-11,5.1c0.9-4,2.9-7.7,5.8-10.6c4.6-4.3,9.5-6.6,11-5.1S897.6,603.7,893,608.1z"/>
	<path class="st1" d="M906,677c-3.1,2.7-6.9,4.5-11,5.1c0.9-4,2.9-7.7,5.8-10.6c4.6-4.3,9.5-6.6,11-5.1S910.6,672.7,906,677z"/>
	<path class="st4" d="M906,677c-3.1,2.7-6.9,4.5-11,5.1c0.9-4,2.9-7.7,5.8-10.6c4.6-4.3,9.5-6.6,11-5.1S910.6,672.7,906,677z"/>
	<path class="st1" d="M90.5,566.8c15.3,22.6,10.4,103.7,10.4,103.7S23.9,645,8.5,622.3c-15.3-22.6-9.4-53.4,13.2-68.7
		C44.4,538.3,75.2,544.2,90.5,566.8L90.5,566.8z"/>
	<path class="st4" d="M90.5,566.8c15.3,22.6,10.4,103.7,10.4,103.7S23.9,645,8.5,622.3c-15.3-22.6-9.4-53.4,13.2-68.7
		C44.4,538.3,75.2,544.2,90.5,566.8L90.5,566.8z"/>
	<path class="st5" d="M22,553.7c0,0,57.7,44.6,79.2,116.9"/>
	<path class="st1" d="M115.8,609.1c0,0-41-7-13,60.9c0,0,28.5-10.9,30.7-37.9c0.9-10.9-6.5-20.7-17.1-22.9L115.8,609.1z"/>
	<path class="st5" d="M116.3,609c0,0,7.8,37.6-13.6,61"/>
	<path class="st8" d="M1008.6,672.1c0,0,17.1-3.4,21.7-7.9s25.1-12.5,27.4-6.8s30.8,24.9,11.4,28.3s-45.6,4.5-51.3,2.3
		S1008.6,672.1,1008.6,672.1z"/>
	<path class="st9" d="M1069.1,683.6c-19.4,3.4-45.6,4.5-51.3,2.3c-4.3-1.7-7.4-10-8.6-13.9l-0.6,0.1c0,0,3.4,13.6,9.1,15.9
		s31.9,1.1,51.3-2.3c5.6-1,7.2-3.3,6.6-6.2C1075.2,681.4,1073.3,682.9,1069.1,683.6z"/>
	<circle class="st1" cx="940" cy="352.6" r="102.2"/>
	<circle class="st1" cx="831.2" cy="324.6" r="102.2"/>
	<circle class="st1" cx="711.5" cy="325.6" r="102.2"/>
	<circle class="st1" cx="672.7" cy="352.6" r="102.2"/>
	<circle class="st1" cx="606.8" cy="361.6" r="102.2"/>
	<circle class="st1" cx="579.9" cy="280.8" r="102.2"/>
	<circle class="st1" cx="609.8" cy="187" r="102.2"/>
	<circle class="st1" cx="666.7" cy="187" r="102.2"/>
	<circle class="st1" cx="699.6" cy="145.1" r="102.2"/>
	<circle class="st1" cx="783.4" cy="191" r="102.2"/>
	<circle class="st1" cx="978.8" cy="280.8" r="102.2"/>
	<circle class="st1" cx="920" cy="229.9" r="102.2"/>
	<circle class="st1" cx="882.1" cy="179" r="102.2"/>
	<circle class="st1" cx="810.3" cy="102.2" r="102.2"/>
	<circle class="st1" cx="943.9" cy="187" r="102.2"/>
	<path class="st4" d="M1041.7,203c0,0-95.2-45.1-152.8,34.9"/>
	<path class="st4" d="M791.7,111.5c0,0-105.3-3.2-126,93.2"/>
	<path class="st4" d="M660.7,320.7c0,0-95.2-45.2-152.8,34.8"/>
	<path class="st1" d="M244,575.5c0,0,5.5,7.2-2.5,18s-14.6,20-12,26.8c0,0,12.1-20.1,22-20.4S254.9,587.7,244,575.5z"/>
	<path class="st4" d="M244,575.5c0.5,0.7,0.9,1.5,1.1,2.3c9.6,11.3,14.8,21.8,5.5,22.1c-8.6,0.3-19,15.7-21.4,19.5
		c0.1,0.3,0.2,0.6,0.3,0.9c0,0,12.1-20.1,22-20.4S254.9,587.7,244,575.5z"/>
	<path class="st10" d="M254.3,584.7c0,2.5-0.3,4.6-0.6,4.6s-0.6-2-0.6-4.6s0.4-1.3,0.7-1.3S254.3,582.2,254.3,584.7z"/>
	<path class="st10" d="M257.8,587.7c-2.2,1.2-4.2,1.9-4.3,1.6s1.5-1.5,3.7-2.8s1.3-0.3,1.5,0S260,586.5,257.8,587.7z"/>
	<path class="st1" d="M215,575.5c0,0-5.5,7.2,2.5,18s14.7,20,12,26.8c0,0-12.1-20.1-22-20.4S204.2,587.7,215,575.5z"/>
	<path class="st4" d="M215,575.5c-0.5,0.7-0.9,1.5-1.1,2.3c-9.6,11.3-14.8,21.8-5.5,22.1c8.6,0.3,19,15.7,21.4,19.5
		c-0.1,0.3-0.2,0.6-0.3,0.9c0,0-12.1-20.1-22-20.4S204.2,587.7,215,575.5z"/>
	<path class="st10" d="M204.8,584.7c0,2.5,0.3,4.6,0.6,4.6s0.6-2,0.6-4.6s-0.4-1.3-0.7-1.3S204.8,582.2,204.8,584.7z"/>
	<path class="st10" d="M201.3,587.7c2.2,1.2,4.2,1.9,4.3,1.6s-1.5-1.5-3.7-2.8s-1.3-0.3-1.5,0S199.1,586.5,201.3,587.7z"/>
	<path class="st8" d="M206.6,619.4c0,0,15.4-0.5,20-3.8c4.6-3.3,23.6-7.2,24.8-2s23.1,26.3,5.7,26.4s-40.3-2.7-44.9-5.5
		S206.6,619.4,206.6,619.4z"/>
	<path class="st9" d="M257.4,638.3c-17.3,0.1-40.3-2.7-44.9-5.5c-3.5-2.1-4.9-9.8-5.4-13.4h-0.5c0,0,1,12.4,5.6,15.2
		s27.6,5.7,44.9,5.5c5,0,6.7-1.8,6.6-4.5C263,637.3,261.1,638.3,257.4,638.3z"/>
	<path class="st1" d="M119.6,718.3c1.8-1.5,3.2-3.5,3.8-5.8c0.5-2.3-0.5-5-2.7-5.9c-2.5-0.9-5.1,0.8-7.1,2.5s-4.3,3.7-6.9,3.3
		c2.7-2.5,4-6.2,3.2-9.8c-0.1-0.7-0.4-1.4-0.9-2c-1.4-1.5-3.8-0.8-5.5,0.3c-5.2,3.7-6.7,10.7-6.7,17.1c-0.5-2.3-0.1-4.7-0.1-7
		s-0.7-5-2.6-6.2c-1.2-0.7-2.6-1-4-1c-2.3-0.1-4.9,0.2-6.5,1.9c-2,2.1-1.5,5.7,0.3,8s4.3,3.8,6.8,5.4c1.9,1.2,3.6,2.7,4.8,4.6
		c0.1,0.3,0.3,0.5,0.4,0.8h14.6C113.8,722.9,116.8,720.8,119.6,718.3z"/>
	<path class="st1" d="M1029.6,732.3c1.8-1.5,3.2-3.5,3.8-5.8c0.5-2.3-0.5-5-2.7-5.9c-2.5-0.9-5.1,0.8-7.1,2.5s-4.3,3.7-6.9,3.3
		c2.7-2.5,4-6.2,3.2-9.8c-0.1-0.7-0.4-1.4-0.9-2c-1.4-1.5-3.8-0.8-5.5,0.3c-5.2,3.7-6.7,10.7-6.7,17.1c-0.5-2.3-0.1-4.7-0.1-7
		s-0.7-5-2.6-6.2c-1.2-0.7-2.6-1-4-1c-2.3-0.1-4.9,0.2-6.5,1.9c-2,2.1-1.5,5.7,0.3,8c1.7,2.3,4.4,3.8,6.8,5.4
		c1.9,1.2,3.6,2.7,4.8,4.6c0.1,0.3,0.3,0.5,0.4,0.8h14.7C1023.8,736.9,1026.8,734.8,1029.6,732.3z"/>
	<path class="st4" d="M801.1,589.5l1.9,5.8l17.2-17.7c0,0-0.8-1.8-1.9-4.2C816.1,578,805.7,586.1,801.1,589.5z"/>
	<path class="st4" d="M876.3,636.1c3.1,1.8,6.4,3.3,9.9,4.4c4.9,1.5,10.6-0.1,13.3-1.1v-3.9l-23-2.6L876.3,636.1z"/>
	<path class="st4" d="M749.5,695.8c-3.5-2.7-7.4-4.8-11.5-6.3c-3.9-1.3-7.6-3.3-11-5.7"/>
	<path class="st11" d="M590.6,714.9l0.8-0.1c-1.2,3.2-3,10.8,4.3,19.3c5.3,6,12.9,9.6,20.9,9.9l24.3,1.1l-0.8,1.6l-25.1-1.2
		c-8-0.3-15.5-3.9-20.9-9.9C584.6,724.7,590.6,714.9,590.6,714.9z"/>
	<path class="st12" d="M679.2,737.2c-0.1,0.3-0.2,0.6-0.3,0.9C678.4,737.9,677.7,737.3,679.2,737.2z"/>
	<path class="st11" d="M638.1,749.3c5.3,2.4,45.6-4.7,51-5.6c0.1,0.5,0.3,1,0.6,1.5c0,0-45.9,8.3-51.7,5.7c-3-1.3-3.7-3.1-3.3-4.7
		C635.1,747.3,636.1,748.4,638.1,749.3z"/>
</g>
<g id="Calque_2">
	<g id="Calque_3">
		<path class="st1" d="M466.7,582.6c4.7,26.9-32.8,98.9-32.8,98.9s-59.9-54.8-64.6-81.7c-4.7-26.9,13.2-52.6,40.2-57.3
			C436.3,537.7,462,555.7,466.7,582.6L466.7,582.6z"/>
		<path class="st4" d="M466.7,582.6c4.7,26.9-32.8,98.9-32.8,98.9s-59.9-54.8-64.6-81.7c-4.7-26.9,13.2-52.6,40.2-57.3
			C436.3,537.7,462,555.7,466.7,582.6L466.7,582.6z"/>
		<path class="st5" d="M409.6,542.7c0,0,34.5,64.3,24.5,139"/>
	</g>
	<g id="Calque_4">
		<path class="st1" d="M472.5,631.6c0,0-34.6-23.1-36.8,50.3c0,0,30.4,1.7,43.5-22c5.3-9.6,2.6-21.6-6.3-27.9L472.5,631.6z"/>
		<path class="st5" d="M473.1,631.8c0,0-8.2,37.5-37.3,50.1"/>
	</g>
	<g id="Calque_4_-_copie">
		<path class="st1" d="M387.8,642.9c-7.1,8.3-6.8,20.6,0.6,28.6c18.4,19.9,47.5,10.9,47.5,10.9c-19.8-70.7-47.8-40-47.8-40
			L387.8,642.9z"/>
		<path class="st5" d="M435.9,682.5c-31.3-5.3-48.3-39.7-48.3-39.7"/>
	</g>
</g>
<g id="Calque_6">
	<path class="st8" d="M424.6,671c0,0,34.4-6.9,43.6-16.1s50.5-25.3,55.1-13.8s62,50.5,23,57.4s-91.8,9.2-103.3,4.6
		S424.6,671,424.6,671z"/>
	<path class="st9" d="M546.3,694.3c-39,6.9-91.8,9.2-103.3,4.6c-8.7-3.5-14.8-20.3-17.2-28.1l-1.2,0.2c0,0,6.9,27.5,18.4,32.1
		s64.3,2.3,103.3-4.6c11.3-2,14.5-6.7,13.3-12.6C558.6,689.8,554.7,692.8,546.3,694.3z"/>
</g>
<g id="Calque_8">
	<path class="st1" d="M546.8,586.6c0,0-20.3,20.3-8.8,50.5c11.5,30.2-19.7,80.3-19.7,80.3l1-0.2c41.7-7.4,62.5-55.1,39.3-90.6
		C549.9,613.5,542.8,598.1,546.8,586.6z"/>
	<path class="st5" d="M546.8,586.6c0,0-11.5,24.9,0,45.3s2,77.4-28.5,85.6"/>
	<path class="st1" d="M583.1,668.9c0,0-23.2-3.7-25.3,17.1s-44.6,23.7-44.6,23.7l0.8,0.5c35.1,23,68.6,14.7,63.6-15.9
		C575.6,682.9,575.8,671.5,583.1,668.9z"/>
	<path class="st6" d="M583.1,668.9c0,0-23.2-3.7-25.3,17.1s-44.6,23.7-44.6,23.7l0.8,0.5c35.1,23,68.6,14.7,63.6-15.9
		C575.6,682.9,575.8,671.5,583.1,668.9z"/>
	<path class="st5" d="M583.1,668.9c0,0-18,4-16.5,20.3s-26.7,36-53.4,20.4"/>
</g>
<g id="Calque_7">
	<path class="st8" d="M486.6,716.1c0,0,17.1-3.4,21.7-7.9s25.1-12.5,27.4-6.8s30.8,24.9,11.4,28.3s-45.6,4.5-51.3,2.3
		S486.6,716.1,486.6,716.1z"/>
	<path class="st9" d="M547.1,727.6c-19.4,3.4-45.6,4.5-51.3,2.3c-4.3-1.7-7.4-10-8.6-13.9l-0.6,0.1c0,0,3.4,13.6,9.1,15.9
		s31.9,1.1,51.3-2.3c5.6-1,7.2-3.3,6.6-6.2C553.2,725.4,551.3,726.9,547.1,727.6z"/>
</g>
</svg>
