<?xml version="1.0" encoding="utf-8"?>
<!-- Generator: Adobe Illustrator 21.0.0, SVG Export Plug-In . SVG Version: 6.00 Build 0)  -->
<svg version="1.1" id="Calque_1" xmlns="http://www.w3.org/2000/svg" xmlns:xlink="http://www.w3.org/1999/xlink" x="0px" y="0px"
	 viewBox="0 0 595.3 595.3" style="enable-background:new 0 0 595.3 595.3;" xml:space="preserve">
<style type="text/css">
	.st0{fill:#757576;}
	.st1{fill:#A4A3A4;}
	.st2{fill:#FFC947;}
</style>
<path class="st0" d="M595.3,298.2c0,12.7-0.8,25.3-2.4,37.6C574.5,482.2,449.5,595.5,298,595.5c-6.5,0-12.9-0.2-19.2-0.6
	c-7-0.4-13.9-1.1-20.7-2.1c-36.6-4.9-71-16.5-102.2-33.4c-16.1-8.8-31.3-19-45.3-30.4C43.6,474.5,0.7,391.3,0.7,298.2
	C0.7,134,133.8,0.9,298,0.9C405.5,0.9,499.8,58,552,143.5c1.8,2.9,3.5,5.8,5.1,8.7c20.2,35.8,33.3,76.3,37.1,119.3
	C594.9,280.3,595.3,289.2,595.3,298.2z"/>
<path class="st1" d="M595.3,298.2c0,12.7-0.8,25.3-2.4,37.6C574.5,482.2,449.5,595.5,298,595.5c-6.5,0-12.9-0.2-19.2-0.6L159,479
	V341l63-124c0,0,103-23,106-26s74-57,74-57l192.1,137.5C594.9,280.3,595.3,289.2,595.3,298.2z"/>
<path class="st2" d="M379.3,126.9l-255.4,48.7c-15.8,3-26.2,18.3-23.1,34.1l48.7,255.4c3,15.8,18.3,26.2,34.1,23.1L439,439.6
	c15.8-3,26.2-18.3,23.1-34.1l-48.7-255.4C410.4,134.3,395.1,123.9,379.3,126.9z M312.1,392.5c5.8,30.4-9.4,47.7-35.4,52.6
	c-23.5,4.5-39.5-5.1-49.2-18.4l21.2-19c6.2,7.3,11.7,13.4,21.8,11.5c9.7-1.8,15-6.8,12.2-21.5l-19.1-99.9l29.4-5.6L312.1,392.5z
	 M390,423.6c-27.3,5.2-47.4-4.4-59.3-19.8l21.2-18.4c8.3,9.1,17.9,15.1,32.4,12.3c12.2-2.3,18.8-9.9,17.2-18.3
	c-1.9-10.1-10.6-12.1-25.1-15.4l-7.9-1.8c-22.9-5-39.2-13.6-43.7-37.5c-4.2-22,9.4-42,35.6-47c18.7-3.6,33.3,0.4,46.3,15.6
	l-20.1,19.1c-6.8-8.1-12.9-10.6-21.3-9c-8.6,1.6-13,8.1-11.7,15.3c1.7,8.8,7.8,11.3,21.5,14.4l7.9,1.7c27,5.9,43.2,14.2,47.9,38.7
	C435.9,399.8,417.9,418.3,390,423.6z"/>
</svg>
