<?xml version="1.0" encoding="utf-8"?>
<!-- Generator: Adobe Illustrator 21.0.0, SVG Export Plug-In . SVG Version: 6.00 Build 0)  -->
<svg version="1.1" id="Calque_1" xmlns="http://www.w3.org/2000/svg" xmlns:xlink="http://www.w3.org/1999/xlink" x="0px" y="0px"
	 viewBox="0 0 595.3 595.3" style="enable-background:new 0 0 595.3 595.3;" xml:space="preserve">
<style type="text/css">
	.st0{fill:#757576;}
	.st1{fill:#A4A3A4;}
	.st2{fill:#FFC947;}
</style>
<path class="st0" d="M595.3,298.2c0,12.7-0.8,25.3-2.4,37.6c-18.4,145.6-142,258.4-292.2,259.7c-0.9,0-1.8,0-2.7,0
	c-6.5,0-12.9-0.2-19.2-0.6c-7-0.4-13.9-1.1-20.7-2.1c-21.6-2.9-42.5-8.1-62.4-15.4c-5.6-2.1-11.2-4.3-16.7-6.7
	c-7.9-3.4-15.6-7.2-23.1-11.3c-16.1-8.8-31.3-19-45.3-30.4C43.6,474.5,0.7,391.3,0.7,298.2C0.7,134,133.8,0.9,298,0.9
	c107.5,0,201.8,57.1,254,142.6c1.8,2.9,3.5,5.8,5.1,8.7c5,8.9,9.6,18.1,13.7,27.6c0.7,1.7,1.4,3.4,2.1,5c5.2,12.6,9.5,25.6,13,38.9
	c4,15.5,6.8,31.5,8.2,47.8C594.9,280.3,595.3,289.2,595.3,298.2z"/>
<path class="st1" d="M595.3,298.2c0,12.7-0.8,25.3-2.4,37.6c-18.4,145.6-142,258.4-292.2,259.7c-0.9,0-1.8,0-2.7,0
	c-6.5,0-12.9-0.2-19.2-0.6c-7-0.4-13.9-1.1-20.7-2.1c-21.6-2.9-42.5-8.1-62.4-15.4l-31-72.7l19.8-20.2l5.3-17.8L172,436l-57.8-100.3
	l28.3-18l-1.3-5l-14.8-25.5l18.5-3.5l39.7-7.3l6-4.5l-13.5-22.2l-18.2-14l-10.2-16.5l-4.2-20.3l0.2-16.2l7.3-12.2l9.5-13.7l18.2-8.2
	l18.2-0.5l20.5,4.3l3.3-5.5l8.3-15.5l15.5-9.2l20.5-4l11.5,4.3l13,8.5l7.1,10.4l7.4,23.1l13.7,11.9l25.3-58l21.3,28.5l28.7-24
	l85.6,88.1l24.4,15l32-8.5l49.9,6.2c4,15.5,6.8,31.5,8.2,47.8C594.9,280.3,595.3,289.2,595.3,298.2z"/>
<path class="st2" d="M534.9,204.3c-21.6-4-19.8-3-28.6,15.7c-2.8,5.9-5,1.4-7.6,0.3c-6.9-2-10-8.2-14.5-12.9
	c-8.7-8.4-16.8-17.5-26.2-25.1c-10.1-8.2-18.2-18.1-27-27.3c-12.6-13.2-25.3-26.2-38.4-39c-7.3,7.2-13.5,14.2-19.4,21.6
	c-2.1,2.7-6.1,5.9-10,0.3c-6-8.6-12.7-16.8-19.9-26.1c-8.6,19.2-16.8,37.4-25,55.8c-8-6.8-14.7-13.4-16.3-23.7
	c-0.1-0.8-0.3-1.9-0.5-2.9c-4.7-10.5-11.2-14.6-12.4-15.4c-9.1-5.8-17.7-8.9-28.4-8.8c-13.5,0.1-23.7,5.8-32.9,14.9
	c-5.2,5.2-7.5,11.7-10.5,18.5c-16.9-8.2-33.3-6.4-49.6,0.5c-9.1,5.5-8.5,5.9-17.1,17.1c-15.8,18.2-10.3,56.7,8.1,70.8
	c4.6,3.6,12.1,8,13.6,11.8c3.1,7.9,7.7,14.8,13.2,22.5c-22.5,5.6-45.3,6.3-68.6,11.8c8.4,10.9,15.7,20.4,23.2,30.2
	c-8.8,4.9-16.7,10-25.2,13.8c-6.5,2.9-6.1,5.7-2.9,11.2c20.7,35,41.1,70.3,61.6,105.5c3.1,4.9,7.1,9.3,7.9,15.4
	c2.3,6.8,1.3,10.5-7.2,9c-8.3-1.6-13.4,2.9-16.4,10.1c-2.3,5.3-2,10.8-1,16.3c4.5,6.2,8.8,13,18.3,8.4c7.3-3.5,13.3-8.8,19.4-13.9
	c7.3-6.1,8.6-15.7,1.8-23.1c-2.9-3.1-5.6-6.6-6.6-10.9c-4.3-5.5-7.4-11.7-10.5-17.9c-11.6-19.5-23.3-38.9-34.8-58.4
	c-7.8-13.2-15.2-26.7-23.2-39.8c-2.6-4.2-1-5.6,2.4-7.8c20.3-13.2,20.3-13.3,35,5.8c15.9,20.7,31.9,41.5,47.7,62.2
	c2.2,2.8,4.1,5.9,6.4,9.3c-27.8-0.3-34.7,5.9-30.7,26.7c8.8,11.2,8.8,11.2,26.1,3.4c5-4.2,10.5-7.8,14.8-12.8
	c6.7-7.8,7.6-11.8,0.7-18.9c-17.8-18.4-31.5-40-47.6-59.8c-8-9.9-15.6-20.2-23.9-31.1c17.1-10.6,34.3-19.7,51.5-28.7
	c0.5,0.6,1,1.1,1.5,1.7c-8.3,11.3-16.1,23-24.9,33.9c-4.8,5.8-4,9.4,0.5,14.8c28.2,34.4,56,69.1,85,105.1
	c-10.3,1.7-22.1-4.2-27.9,7.8c-3.2,6.6-3.3,13.2-0.7,19.9c9.1,10.1,11.7,10.4,23.3,3.3c2.3-1.4,4.7-2.8,7.1-4.2
	c17.2-15.1,17.1-16.4,2.3-33.8c-7.3-8.5-13.9-17.6-20.8-26.4c-4.3-3.7-7.6-8.3-10.9-13c-16.7-20.5-33.3-41.1-50.2-61.4
	c-3.3-4-2.8-6.7,0-10.3c6.4-8.4,12.8-16.8,18.7-25.5c3.5-5.1,6.9-8.1,13.3-4.6c2.4,1.3,5.3,1.6,8.1,2.3c-0.8,3.6-3.4,5.7-5.5,8.3
	c-9.3,11.5-9.2,11.4,2.7,19.5c15.9,10.7,31.8,21.5,48.1,32.6c-6.8,5.6-16.5,8.8-12.6,20.1c6.5,9,9.2,9.7,18.3,4.3
	c4-2.4,7.7-5.1,11.5-7.7c7.5-7.8,7.6-9.3-1.4-15.5c-19.2-13.1-38.6-25.9-57.9-38.8c-2-1.4-4-2.8-6-4.3c3-6.2,8.2-10.4,11.8-15.9
	c1.5-2.2,3.7-1.9,5.8-2.2c39.5-4.8,66.4-26.8,83.9-61.6c2.9-5.7,2.7-5.8,20.3-12.9c7,20.5,13.9,41,20.8,61.5
	c1.1,3.2,1.9,6.6,3.1,9.8c5.1,13.4,6.2,13.8,18.2,6c2.6-2.5,5.4-4.9,7.8-7.6c7.6-8.2,7.6-9,0.9-18.6c-11.6-4.2-15.2-3.3-23.1,6.1
	c-6-17-11.7-33.5-17.7-49.9c-2.1-5.7-1.7-14-7.2-16.1c-3.8-1.4-9.9,3.4-15,5.4c-0.8,0.3-1.7,0.4-3,0.7c0.1-4.2,0.7-8.3,0.3-12.2
	c-0.4-3.9,1.4-5.7,4.7-6.9c10.1-3.9,20.4-7.5,30.3-11.9c4.2-1.8,5.6,0.1,7.5,2.8c15.9,21.9,31.8,43.8,47.7,65.7
	c3.4,4.5,6.8,9.1,10.3,13.6c7.9,9.9,15.2,20.2,22,30.9c7,11.1,10.9,13.8,24.9,5.6c3.6-2.1,11.9-10.3,12.7-11.2
	c8.7-9.5,8.7-10,1.9-21c-15.9-11.6-27.9-5.6-34.6,18.3c-8.8-9.9-15.6-20.3-22.5-30.7c-2.3-3-4.6-6.1-6.9-9.1
	c-16.6-22.5-33.4-44.9-49.7-67.6c-4.4-6.2-8.8-7.4-15.6-4.3c-9,4.1-18.3,7.5-27.6,11c-2,0.8-4.6,2.9-6.5,0c-1.8-2.8,0.8-4.5,2.5-6.2
	c10.7-11.2,21.4-22.5,32-33.6c3.2,1.1,4.4,3.9,6,6c21.4,29,45.2,56.3,64.9,86.5c4.9,7.6,10,8.5,18.3,3.7
	c8.1-4.7,15.2-10.7,22.3-16.9c6-7.4,2-13.5-2.5-19.5c-17.7-10.4-27.1-4.5-33.9,21c-3.2-1-4.8-3.8-6.7-6.2
	c-19.1-24.9-38.1-49.9-57.5-74.7c-3.9-4.9-4.2-7.9,0.9-12c4.3-3.4,7.8-8,11.4-12.2c2.7-3.1,4.8-4.1,8.2-0.5
	c18.1,18.7,36.4,37.2,54.6,55.8c8.7,8.8,18.1,16.9,25.8,26.7c5.4,3.6,9.3,8.7,13.7,13.3c3.5,3.1,6.5,6.5,9.3,10.3
	c6.6,8.8,11.4,9.4,21.5,4.3c5.6-2.9,9.9-7.4,15-10.7c10-12.2,10-12.2,1.4-24.1C537.1,205.3,536,204.5,534.9,204.3z M195.7,284.3
	c-14.6,8.2-29.2,16.2-43.7,24.5c-3.9,2.3-6.1,1.1-8.4-2.2c-3.8-5.3-7.9-10.4-12.8-16.7c22-3.8,43-7.5,64.2-10
	C195.2,281.4,195.4,282.9,195.7,284.3z M243.5,208.8c-4.4,28.2-32.2,46.3-59.7,38.1c-14.6-4.4-16.5-4.2-27.1-18.4
	c-12.7-16.4-13.9-42-2.8-57.3c13.8-18.9,34.9-25.6,55.9-18.2c4.6,1.6,6.8,3.4,6.8,9c0.2,16.2,8,28.6,22.1,36.4
	C243.7,201.2,244.2,204.1,243.5,208.8z M295.5,176.9c-5,9.3-11.3,17.3-22.8,20.3c-18.8,4.9-37.1-1.6-45.9-17.5
	c-8.2-15-6.1-35.2,4.8-44.6c19.1-16.5,37-18,54.4-4.8c3.4,2.7,9.5,9.5,11.2,15C300.9,156.1,300.9,166.9,295.5,176.9z M358.8,144.6
	c1.4,1.8,1.6,3.7,1.3,5.3c-0.8,4-31,35-30.9,35c-6.4-4.7-6.5-9.4-3.4-15.6c6.7-13.5,12.6-27.5,19.4-42.4
	C350.3,133.4,354.6,139,358.8,144.6z"/>
<path class="st2" d="M253,147.8c-6.9,5.2-7.9,15.2-2.2,22.7c6.3,8.3,16.9,9.7,25.5,3.3c8.9-6.6,10.7-17.8,4.3-26.2
	C274.6,139.8,263.6,139.9,253,147.8z M264.3,163.1c-2.7,1.5-5.5,1.8-7.6-0.7c-2.2-2.5-1.6-5.3,0.7-7.4c2.5-2.2,5.4-1.9,7.4,0.5
	C267,158,266.2,160.7,264.3,163.1z"/>
<path class="st2" d="M182.3,184.4c-7,5.6-7,20.2-0.2,29c8.1,10.4,22,12.2,32.3,4.2c10.4-8,11.9-21.4,3.6-31.8
	C207.9,173,197,172.6,182.3,184.4z M212.9,185.5c1.9,3.3,1.4,6.3-1.6,9c-3.5,1.3-6.6,0.8-8.5-2.7c-2-3.5-1.1-6.6,2.3-8.6
	C208.3,181.4,211.1,182.5,212.9,185.5z"/>
</svg>
