<?xml version="1.0" encoding="utf-8"?>
<!-- Generator: Adobe Illustrator 21.0.0, SVG Export Plug-In . SVG Version: 6.00 Build 0)  -->
<svg version="1.1" id="Calque_1" xmlns="http://www.w3.org/2000/svg" xmlns:xlink="http://www.w3.org/1999/xlink" x="0px" y="0px"
	 viewBox="0 0 595.3 595.3" style="enable-background:new 0 0 595.3 595.3;" xml:space="preserve">
<style type="text/css">
	.st0{fill:#757576;}
	.st1{fill:#A4A3A4;}
	.st2{fill:#FFC947;}
</style>
<path class="st0" d="M595.3,298.2c0,12.7-0.8,25.3-2.4,37.6C574.5,482.2,449.5,595.5,298,595.5c-13.5,0-26.9-0.9-39.9-2.7
	c-36.6-4.9-71-16.5-102.2-33.4c-16.1-8.8-31.3-19-45.3-30.4C43.6,474.5,0.7,391.3,0.7,298.2C0.7,134,133.8,0.9,298,0.9
	C405.5,0.9,499.8,58,552,143.5c1.8,2.9,3.5,5.8,5.1,8.7C581.4,195.3,595.3,245.1,595.3,298.2z"/>
<path class="st1" d="M593,335.8C574.5,482.2,449.5,595.5,298,595.5c-13.5,0-26.9-0.9-39.9-2.7c-36.6-4.9-71-16.5-102.2-33.4
	l-32.8-156.1L141,403l30,22l34-6l22-28v-58l-70-34l-12-46l44-20l46,2l58,14l-28-74l6-82l22.3-20.7l28.7-8l32.9,4.5L593,335.8z"/>
<path class="st2" d="M293,66.8c-24.7,15.9-38.5,42.8-43.4,71.8c-5.6,31.9-2.8,64,3.6,94.7c-23.1-3.5-44.9-12.9-74.2-5.3
	c-22.6,5.9-41.5,20.2-51.9,45.2c-4.9,11.8-5.1,25.4-2.4,36.5c7,28.8,35.2,41.3,46.8,45l25,7.3c5,1.3,17.6,5.2,21,19.4
	c3.7,15.4-7,33.2-26,37.8c-8.5,2.1-22,2.9-24.2-6.1c-0.9-3.7,0-7.3-0.4-10.7c-0.3-2.9-0.8-5-1-6.2c-2.8-11.4-14.2-21.5-26.4-18.5
	c-11.4,2.8-19.8,10.9-16.3,25.6c4,16.6,25.9,38.1,68.5,27.8c49.9-12.1,71.9-56.3,59.2-89.2c-8-20.7-24.7-29.6-50.9-38.3l-21-6.5
	c-12.2-3.1-22.6-14.6-20.6-29.3c1.7-12.4,9.1-21.7,27.2-26.7c26.5-7.3,46,2.4,70.5,5.1c6.6,27.1,15.7,52.9,23.9,76l6.6,16.9
	c25.6,70.7,37.1,111.1,25,145.4c-2.8,6.3-6.7,15.6-16.9,22.1c-5.4,3.4-9.4,0.7-10.4-0.9c-2.4-3.8-0.2-7.4,0.9-10.4
	c2.2-3.7,5.3-9.4-0.6-18.6c-6.9-10.8-21.7-14.9-34.6-6.7c-9.7,6.2-19.2,24.4-8.5,41.1c11,17.2,35.2,20.6,59.4,5.2
	c12.9-8.3,39.2-31.1,47.7-82.9c10.3-59.6-7.2-110.5-19.8-147.9L310.7,237c4.7-2.1,9.6-4.5,14.8-7.5c42.6-24.1,50.7-58.4,41.6-74.4
	c-5.5-9.7-17.6-15.3-26.6-9.7c-6.4,4.1-12,13.3-8.6,23.4c3.3,10,23.4,8.9,16,23.7c-5.2,10.5-18.2,23.5-41.5,33.1l-8.9-23.9
	c-16.3-45.6-36.4-101.7,0.2-125.1c2.6-1.8,12.7-7.4,16.9-1c1.4,2.2,1.2,3,1.6,9.6c-0.3,5.5,0.7,9.4,3.1,13.1
	c6.6,10.2,18.6,12.4,29.8,5.1c15.1-9.6,10.6-27.2,5.8-34.8C343.5,51.1,317.7,51,293,66.8L293,66.8z"/>
</svg>
