<?xml version="1.0" encoding="utf-8"?>
<!-- Generator: Adobe Illustrator 21.0.0, SVG Export Plug-In . SVG Version: 6.00 Build 0)  -->
<svg version="1.1" id="Calque_1" xmlns="http://www.w3.org/2000/svg" xmlns:xlink="http://www.w3.org/1999/xlink" x="0px" y="0px"
	 viewBox="0 0 595.3 595.3" style="enable-background:new 0 0 595.3 595.3;" xml:space="preserve">
<style type="text/css">
	.st0{fill:#757576;}
	.st1{fill:#A4A3A4;}
	.st2{fill:#FFC947;}
</style>
<path class="st0" d="M595.3,298.2c0,3.8-0.1,7.6-0.2,11.4c-0.3,8.8-1,17.6-2.1,26.2c-14.3,113.4-92.5,206.9-197.3,243.3
	c-25.4,8.8-52.3,14.3-80.2,15.9c-5.7,0.3-11.5,0.5-17.4,0.5c-6.5,0-12.9-0.2-19.2-0.6c-4.7-0.3-9.3-0.7-13.9-1.2
	c-2.3-0.3-4.5-0.5-6.8-0.8c-3.2-0.4-6.4-0.9-9.6-1.4c-5.8-1-11.6-2.1-17.3-3.4c-2.4-0.5-4.8-1.1-7.2-1.8c-24-6.1-46.8-15.2-68-26.8
	c-16.1-8.8-31.3-19-45.3-30.4C43.6,474.5,0.7,391.3,0.7,298.2C0.7,134,133.8,0.9,298,0.9C405.5,0.9,499.8,58,552,143.5
	c1.8,2.9,3.5,5.8,5.1,8.7c0.7,1.2,1.4,2.5,2.1,3.7c1.3,2.4,2.6,4.8,3.8,7.2c3.4,6.7,6.6,13.5,9.5,20.5c2.7,6.4,5.2,13,7.4,19.7
	c7.3,21.7,12.2,44.5,14.3,68c0,0.1,0,0.1,0,0.2C594.9,280.3,595.3,289.2,595.3,298.2z"/>
<path class="st1" d="M595.3,298.2c0,3.8-0.1,7.6-0.2,11.4c-0.3,8.8-1,17.6-2.1,26.2c-14.3,113.4-92.5,206.9-197.3,243.3
	c-25.4,8.8-52.3,14.3-80.2,15.9c-5.7,0.3-11.5,0.5-17.4,0.5c-6.5,0-12.9-0.2-19.2-0.6c-4.7-0.3-9.3-0.7-13.9-1.2
	c-2.3-0.3-4.5-0.5-6.8-0.8c-3.2-0.4-6.4-0.9-9.6-1.4c-5.8-1-11.6-2.1-17.3-3.4L160,407.4l2.8-85.6l51-153l0.7,86.7
	c11.3,25.9,27.9,36.3,52.3,23.3l11.7,5.2l69-14.5l53-7L435,231l37.8-33.6l107,5.9c7.3,21.7,12.2,44.5,14.3,68c0,0.1,0,0.1,0,0.2
	C594.9,280.3,595.3,289.2,595.3,298.2z"/>
<path class="st2" d="M216.8,108.3c-2.1-0.7-3.6-0.4-4.5,2.2l-94.5,278.8c-0.7,2.1-0.4,3.6,2.2,4.5l40,13.5c2.9,1,3.6,0.4,4.5-2.2
	l94.6-279.1c0.8-2.3,0-3.5-2.1-4.2L216.8,108.3z"/>
<path class="st2" d="M244.6,320.1c-24.5,72.4,4.4,121.9,61.8,141.3c22.1,7.5,47.3,10.8,73.2,7.7c2.2-0.4,2.8-0.5,3.4-2.3
	c2-10.3,5.1-19.4,7.6-26.7l82.3-242.7c0.4-1.3,0.2-2.3-1.9-3l-42.1-14.3c-1.3-0.4-2.9-0.1-3.5,1.7L402,251c-5-2.3-8.1-3.3-13.6-5.2
	l0,0C322.8,223.5,265.4,257.9,244.6,320.1z M387.9,292.8l-44.5,131.4c-6,0.6-13-0.9-19.5-3.1c-29.9-10.1-47.1-37.9-30.5-86.7
	c14.5-42.8,46.6-60.6,80.1-49.3C379.7,287.1,384.6,289.6,387.9,292.8z"/>
</svg>
