<?xml version="1.0" encoding="utf-8"?>
<!-- Generator: Adobe Illustrator 21.0.0, SVG Export Plug-In . SVG Version: 6.00 Build 0)  -->
<svg version="1.1" id="Calque_1" xmlns="http://www.w3.org/2000/svg" xmlns:xlink="http://www.w3.org/1999/xlink" x="0px" y="0px"
	 viewBox="0 0 595.3 595.3" style="enable-background:new 0 0 595.3 595.3;" xml:space="preserve">
<style type="text/css">
	.st0{fill:#757576;}
	.st1{fill:#A4A3A4;}
	.st2{fill:#FFC947;}
</style>
<path class="st0" d="M595.3,298.2c0,12.7-0.8,25.3-2.4,37.6c-17,134.7-124.1,241.3-259,257.6c-10.9,1.3-22,2-33.3,2.1
	c-0.9,0-1.8,0-2.7,0c-6.5,0-12.9-0.2-19.2-0.6c-7-0.4-13.9-1.1-20.7-2.1c-27.8-3.7-54.3-11.3-79.1-22.1c-7.9-3.4-15.6-7.2-23.1-11.3
	c-16.1-8.8-31.3-19-45.3-30.4C43.6,474.5,0.7,391.3,0.7,298.2C0.7,134,133.8,0.9,298,0.9c107.5,0,201.8,57.1,254,142.6
	c1.8,2.9,3.5,5.8,5.1,8.7c5,8.9,9.6,18.1,13.7,27.6c0.7,1.7,1.4,3.4,2.1,5c6,14.4,10.8,29.4,14.5,44.8c3.2,13.6,5.5,27.6,6.8,41.9
	C594.9,280.3,595.3,289.2,595.3,298.2z"/>
<path class="st1" d="M595.3,298.2c0,12.7-0.8,25.3-2.4,37.6c-17,134.7-124.1,241.3-259,257.6L251,464l-7.6-11.9c0,0-18-28-34-57.5
	c-0.9-1.7-1.9-3.2-3-4.5c-14.5-18-43.4-8.7-54.3-4.3c-2.7,1.1-4.2,1.9-4.2,1.9l-9.5,11l-22-2L109,373l12-14.5l-1-12
	c0,0,19-43,23.5-55c0.9-2.3,1-4.5,0.5-6.6c-0.7-3.5-2.8-6.6-5.1-9.1c-3.5-3.9-7.5-6.3-7.5-6.3l-10.5-38l7-32l18-18.5l31.5-7
	c0,0,31.5,2,51,2c1.7,0,3.5-0.4,5.2-1c15.5-5.7,31.5-34.4,35.7-42.4c0.7-1.3,1.1-2.1,1.1-2.1l-7-18l9.5-21l24.5,6l6,20L328,136
	c0,0,13.5,32,26,38.5c0.8,0.4,1.6,0.8,2.4,1.1c5.4,2.2,9.8,1.7,12.8,0.6c3.1-1.1,4.8-2.8,4.8-2.8l51,8.5l2.8,0.8l159.5,46.8
	c3.2,13.6,5.5,27.6,6.8,41.9C594.9,280.3,595.3,289.2,595.3,298.2z"/>
<path class="st2" d="M330.5,172c-0.9-0.1-2.3-0.4-3.5-0.3c-2,0.2-3.9,0.7-5.8,1.2c-62.4,15.9-116.2,46.9-160.7,93.2
	c-5.8,6-11.4,12.3-16.4,18.8c-16.6,21.3-28.3,45.3-28.7,74.9c-5.1,2.1-7,6.9-9.9,11.1c-0.8,1.2-4.7,13.3,1.2,22.6
	c6.7,10.5,18,14.9,29,11.2c9.2-3.1,15.1-9.9,16.6-19c0.3-1.9,0.4-3.9,0.4-6.1c-0.5-11.8-8.4-20.6-20.7-23.1c-1.8-0.4-4.1,0.4-5.3-2
	c-0.2-3.9,0.1-7.8,0.9-11.7c4-20,13.6-37.2,26.3-52.7C197.8,236,254.8,202,321.6,183.6c3.8-1.1,7.9-1.3,10.7-4.2
	C333.6,176.5,333.4,174.1,330.5,172z M128,366.6c7.5-0.3,14.4,6.8,14.4,14.6c0,7.9-6.7,14.5-14.6,14.4c-7.3-0.1-13.6-6.5-13.8-14
	C113.9,373.5,120.1,366.8,128,366.6z"/>
<path class="st2" d="M365.3,203.2c-2.5-9.5-5.4-18.7-8.9-27.6c-9.8-25.3-24.4-47.8-48.8-63.5c-2.8-13.4-5-17.5-15.1-23.1
	c-9-3.5-16.5-1.4-17.3-1.1c-11.3,4-17.3,11.6-17.7,22.3c-0.3,9.7,4,17.7,12,22.4c0.8,0.5,1.7,1,2.6,1.4c9.6,4.4,19.7,2.3,28.1-5.9
	c1.6-1.5,2.4-4.1,5.5-4.2c15.1,9.2,25.1,23.1,32.9,38.5c26.3,52.3,30.5,108.1,25.4,165.2c-1.6,17.8-5.1,35.3-10.4,52.4
	c-1.5,5-1.2,9.3,5.3,9.7c4.5-2.2,4.9-6.5,5.9-10.2C380.5,320.8,381.1,262,365.3,203.2z M282,125.8c-7.8-0.1-14.5-6.9-14.4-14.7
	s7.1-14.5,14.8-14.3c7.3,0.2,13.7,6.8,13.7,14.2C296.1,119.4,289.9,125.8,282,125.8z"/>
<path class="st2" d="M455.3,365.9c-6.8-8.9-19.3-12.1-29.4-7.7c-5,2.2-8.8,5.8-11.7,10.3c-5,7.9-3.6,16.3-1.3,24.4
	c-3.7,2.9-7.5,4.1-11.3,5.3c-21.8,6.4-43.9,5.3-65.8,0.9c-64.3-13.1-119-44.2-165.5-90.2c-2.8-2.8-4.9-6.4-10-7.1
	c-5.5,6-5.5,6.1,0.8,12.6c41.4,42.6,90.9,72.3,147.7,89.1c37.3,11,75.1,16.3,111.9-1.5c16.7,6.2,27.2,4.2,34.9-6.4
	C462,386.8,461.9,374.4,455.3,365.9z M436.4,395.5c-7.1,0.5-15.1-6.8-15.3-14c-0.3-7.4,6.8-14.7,14.3-15c7.6-0.2,14.6,6.8,14.6,14.5
	C450.1,388.5,443.9,395,436.4,395.5z"/>
<path class="st2" d="M233.9,174.7c-3.2,7.7-9.1,4.8-13.8,4.2c-17.8-2.4-35.6-3-53.2,1c-28.5,6.5-43.2,25.6-40.2,52.3
	c1.3,11.2,5.2,21.8,10.4,31.8c1.8,3.4,4.5,6.7,2.8,10.9c-2.1,2.7-4.5,2.7-7.9,1.3c-9.2-14.9-15.7-31.3-16.4-49.6
	c-0.9-25,14.1-45.6,39.7-54.4c23.4-8,47.4-7.6,71.4-2.8C229.6,170,229.6,170.1,233.9,174.7z"/>
<path class="st2" d="M410.3,306.3c-5-1-6.7-2.7-7-6c2.3-5.7,7.1-10,10.7-15.1c11.1-15.8,20.7-32.3,23-52
	c2.8-23.8-6.9-40.4-29.1-49.4c-10.2-4.1-20.9-6-31.9-6.3c-7.9-0.2-8-0.5-8.4-8.2c1.8-2.5,4.3-2.8,7.1-2.6c13.6,0.6,27,2.6,39.5,8.2
	c23.6,10.6,35.7,29.3,33.8,55.1C445.8,260.4,429.4,284.2,410.3,306.3z"/>
<path class="st2" d="M337.8,422.2c4,0,5.6,1.8,6.5,4.5c-12,27.1-39.7,48.3-63.2,47c-15.3-0.9-28-6.9-39.1-17
	c-18.8-17.2-29.6-39.3-38.2-62.8c0.7-1.3,1.2-2.6,2-3.5c0.9-0.9,2.1-1.4,2.9-1.8c2.2,0.2,3.9,0.9,4.7,2.4c2.2,4.8,4.2,9.7,6.3,14.5
	c7.2,16.5,16.2,31.8,29.9,43.8c21,18.5,43.9,18.5,65-0.1c6.5-5.7,11.9-12.3,16.7-19.5C333.1,427.1,334.6,424.1,337.8,422.2z"/>
<path class="st2" d="M299.6,290.4c-0.2,9.6-8.3,17.8-17.6,17.7c-9.7-0.1-18.4-9.1-18.1-18.6c0.3-9.2,8.8-17.6,18-17.6
	C291.9,271.8,299.9,280.1,299.6,290.4z"/>
</svg>
