<?xml version="1.0" encoding="utf-8"?>
<!-- Generator: Adobe Illustrator 21.0.0, SVG Export Plug-In . SVG Version: 6.00 Build 0)  -->
<svg version="1.1" id="Calque_1" xmlns="http://www.w3.org/2000/svg" xmlns:xlink="http://www.w3.org/1999/xlink" x="0px" y="0px"
	 viewBox="0 0 595.3 595.3" style="enable-background:new 0 0 595.3 595.3;" xml:space="preserve">
<style type="text/css">
	.st0{fill:#757576;}
	.st1{fill:#A4A3A4;}
	.st2{fill:#FFC947;}
	.st3{fill:#FFA000;}
</style>
<path class="st0" d="M595.3,298.2c0,12.7-0.8,25.3-2.4,37.6c-16.4,130.3-117.2,234.4-246,255.7c-4.3,0.7-8.6,1.3-13,1.9
	c-10.9,1.3-22,2-33.3,2.1c-0.9,0-1.8,0-2.7,0c-6.5,0-12.9-0.2-19.2-0.6c-7-0.4-13.9-1.1-20.7-2.1c-27.8-3.7-54.3-11.3-79.1-22.1
	c-7.9-3.4-15.6-7.2-23.1-11.3c-16.1-8.8-31.3-19-45.3-30.4C43.6,474.5,0.7,391.3,0.7,298.2C0.7,134,133.8,0.9,298,0.9
	c107.5,0,201.8,57.1,254,142.6c1.8,2.9,3.5,5.8,5.1,8.7c5,8.9,9.6,18.1,13.7,27.6c0.7,1.7,1.4,3.4,2.1,5c1.8,4.4,3.5,8.8,5.1,13.3
	c3.7,10.3,6.8,20.8,9.3,31.5c3.2,13.6,5.5,27.6,6.8,41.9C594.9,280.3,595.3,289.2,595.3,298.2z"/>
<path class="st1" d="M595.3,298.2c0,12.7-0.8,25.3-2.4,37.6c-16.4,130.3-117.2,234.4-246,255.7l-84.4-93.1l-0.6-0.7l10.3-34.7
	l119-202.7L501,194.7l17,0.8l60,2.7c3.7,10.3,6.8,20.8,9.3,31.5c3.2,13.6,5.5,27.6,6.8,41.9C594.9,280.3,595.3,289.2,595.3,298.2z"
	/>
<path class="st2" d="M515.4,194.8c-24.9-4.6-49.9-9.1-74.8-13.6c-0.3,0-0.5-0.1-0.8-0.1c-0.3,0.5-0.6,1-0.9,1.5
	c-12.8,15.2-25.5,30.5-38.4,45.7c-37.1,43.9-74.2,87.8-111.4,131.7c-0.8,0.9-1.3,2.6-2.7,2.3c-1.1-0.3-1.1-1.9-1.5-3
	C259,287.2,233.1,215.1,207.3,143c-0.5-1.3-1.1-2.6-1-4.1c-0.3,0-0.5-0.1-0.8-0.1c-24.9-4.5-49.9-9-74.8-13.5
	c-1-0.2-2.2-1.3-3.2,0.2l0.3,0.1h0.4c4.8,13.6,9.5,27.3,14.4,40.9c39.2,109.5,78.5,218.9,117.7,328.4c0.4,1.2,1.6,2.4,0.7,3.9
	c0.5,0.1,1,0.2,1.5,0.3c-0.3-1.9,1.4-2.6,2.3-3.7c83.3-98.6,166.6-197.1,249.9-295.7c1-1.2,1.9-2.4,2.8-3.7c0.2,0,0.5,0.1,0.7,0.1
	C517.9,194.4,516.4,195,515.4,194.8z"/>
<path class="st3" d="M368.1,168.2c-0.1,0.2-0.2,0.4-0.3,0.7c-13.9,16.4-27.9,32.7-41.8,49.1c-5.6,6.5-11.1,13.1-16.7,19.7
	c-1.4-1.3-1.5-2.8-2-4c-9.3-25.8-18.5-51.7-27.8-77.5c-0.4-1.2-1-2.3-1.5-3.5c0-0.3,0-0.5,0-0.8c-23.4-4.2-46.8-8.5-70.2-12.7
	c-0.5-0.1-1-0.2-1.5-0.3c-0.2,1.5,0.5,2.8,1,4.1c25.9,72.1,51.8,144.2,77.7,216.3c0.4,1.1,0.3,2.7,1.5,3c1.4,0.3,2-1.4,2.7-2.3
	c37.1-43.9,74.3-87.8,111.4-131.7c12.8-15.2,25.6-30.5,38.4-45.7c0.3-0.5,0.6-1,0.9-1.5C415.9,176.8,392,172.5,368.1,168.2z"/>
</svg>
