<?xml version="1.0" encoding="utf-8"?>
<!-- Generator: Adobe Illustrator 21.0.0, SVG Export Plug-In . SVG Version: 6.00 Build 0)  -->
<svg version="1.1" id="Calque_1" xmlns="http://www.w3.org/2000/svg" xmlns:xlink="http://www.w3.org/1999/xlink" x="0px" y="0px"
	 viewBox="0 0 500 500" style="enable-background:new 0 0 500 500;" xml:space="preserve">
<style type="text/css">
	.st0{fill:#FFA000;}
	.st1{fill:#FFD149;}
</style>
<g id="Calque_4">
	<path class="st0" d="M358.8,117.5h-60.6c-6.5,0-11.8,5.3-11.8,11.8v25.5c0.4-0.4,17.5-17.6,17.5-17.6s12.9,11.8,18,17
		c0.8-1.3,1.6-2.5,2.4-3.8c3-4.5,6.5-9,10.4-12.6c12.8-12.9,26.8-11.2,26.8-11.2s1.6,14.5-10.8,27.3c-3.8,3.8-8.7,7.3-13.4,10.4
		c-1.1,0.7-2.3,1.5-3.4,2.2c1.9,1.9,31.5,31.8,32.3,32.7c1.6-1.3,2.9-3,3.7-5c0.5-1.3,0.8-2.7,0.8-4.2v-60.7
		C370.6,122.8,365.3,117.5,358.8,117.5z"/>
	
		<ellipse transform="matrix(0.7071 -0.7071 0.7071 0.7071 -5.9237 282.8685)" class="st0" cx="338.5" cy="148.6" rx="6.8" ry="2.6"/>
	<circle class="st0" cx="349.7" cy="137.6" r="4.9"/>
</g>
<g id="Calque_5">
	<path class="st1" d="M390.3,196.7c-0.5-0.3-1.2-0.7-1.9-0.8c-13-2.4-12-1.8-17.3,9.5c-1,2.2-2,2-2.9,1.4c-0.6-0.4-1.1-0.9-1.7-1.2
		c-4.2-1.2-6-4.9-8.7-7.8c-5.3-5.1-10.1-10.6-15.8-15.1c-2.2-1.8-4.3-3.8-6.3-5.8c-3.4-3.5-6.6-7.2-10-10.7c-1-1.1-2-2.1-3-3.2
		c-6.6-6.9-13.3-13.7-20.1-20.4c-4.4,4.3-8.2,8.6-11.7,13c-1.3,1.6-3.7,3.5-6,0.3c0,0,0,0-0.1-0.1c-3.6-5.2-7.7-10.1-12-15.8
		c-5.2,11.6-10.1,22.6-15.1,33.7c-4.8-4.1-8.9-8.1-9.8-14.3c-0.1-0.5-0.2-1.2-0.3-1.8c-2.8-6.3-6.8-8.8-7.5-9.3
		c-5.5-3.5-10.7-5.4-17.1-5.3c-8.1,0.1-14.3,3.5-19.8,9c-3.1,3.1-4.5,7.1-6.3,11.2c-10.2-5-20.1-3.9-29.9,0.3
		c-5.5,3.3-5.1,3.6-10.3,10.3c-9.5,11-6.2,34.2,4.9,42.7c2.8,2.2,7.3,4.8,8.2,7.1c1.9,4.8,4.6,8.9,8,13.6
		c-13.6,3.4-27.3,3.8-41.4,7.1c5.1,6.6,9.5,12.3,14,18.2c-5.3,3-10.1,6-15.2,8.3c-3.9,1.8-3.7,3.4-1.7,6.8c2.4,4,4.7,8,7.1,12
		l0.3-0.2l1.4-1l0,0l2.1-1.5c-1.7-3-3.4-5.9-5.2-8.8c-1.6-2.5-0.6-3.4,1.4-4.7c12.3-8,12.3-8,21.1,3.5c4.8,6.2,9.5,12.4,14.3,18.6
		v-7.7c-1.2-1.6-2.5-3.2-3.8-4.8c-4.8-6-9.4-12.2-14.4-18.8c10.3-6.4,20.7-11.9,31.1-17.3c0.3,0.4,0.6,0.7,0.9,1
		c-3.5,4.7-6.8,9.6-10.3,14.3l3.3,2.9c2.7-3.6,5.4-7.3,8-11c2.1-3.1,4.2-4.9,8-2.8c1.5,0.8,3.2,1,4.9,1.4c-0.5,2.2-2,3.4-3.3,5
		c-5.6,6.9-5.6,6.9,1.6,11.8c9.6,6.5,19.2,13,29,19.7c-4.1,3.4-10,5.3-7.6,12.1c0.8,1.1,1.5,2,2.2,2.7h0.7v0.7
		c2.3,2,4.2,1.5,8.2-0.8c2.4-1.5,4.6-3.1,6.9-4.6c4.5-4.7,4.6-5.6-0.8-9.4c-11.6-7.9-23.3-15.6-34.9-23.4c-1.2-0.8-2.4-1.7-3.6-2.6
		c1.8-3.7,4.9-6.3,7.1-9.6c0.9-1.3,2.2-1.1,3.5-1.3c23.8-2.9,40.1-16.2,50.6-37.2c1.8-3.4,1.6-3.5,12.2-7.8
		c4.2,12.4,8.4,24.7,12.5,37.1c0.7,1.9,1.2,4,1.9,5.9c3.1,8.1,3.8,8.3,11,3.6c1.6-1.5,3.3-3,4.7-4.6c4.6-5,4.6-5.4,0.5-11.2
		c-7-2.5-9.2-2-13.9,3.7c-3.6-10.3-7.1-20.2-10.7-30.1c-1.3-3.4-1-8.4-4.3-9.7c-2.3-0.8-6,2-9,3.3c-0.5,0.2-1,0.2-1.8,0.4
		c0.1-2.5,0.4-5,0.2-7.4c-0.2-2.4,0.8-3.4,2.8-4.2c5.3-2,10.7-4,15.9-6.2c0.8-0.3,1.6-0.7,2.4-1c2.5-1.1,3.4,0.1,4.5,1.7
		c1.7,2.4,3.4,4.7,5.1,7.1c1.5,2.1,3,4.2,4.6,6.3c2.8,3.9,5.6,7.7,8.4,11.5c3.6,4.9,7.1,9.8,10.7,14.7c2,2.7,4.1,5.5,6.2,8.2
		c4.8,6,9.2,12.2,13.3,18.6c4.2,6.7,6.6,8.3,15,3.4c2.2-1.3,7.2-6.2,7.7-6.8c5.3-5.7,5.3-6,1.2-12.7c-9.6-7-16.8-3.4-20.9,11
		c-5.3-6-9.4-12.3-13.6-18.5c-1.4-1.8-2.8-3.7-4.2-5.5c-3.1-4.2-6.2-8.4-9.3-12.6c-3.2-4.4-6.4-8.7-9.7-13.1c-0.5-0.7-1-1.4-1.5-2.1
		c-1.4-2-2.9-3.9-4.3-5.9l0,0c-0.4-0.5-0.8-1-1.1-1.5c-1.3-1.7-2.5-3.5-3.8-5.2c-0.1-0.1-0.2-0.3-0.3-0.4c-0.4-0.5-0.7-1-1.1-1.3
		l0,0c-2.3-2.5-4.8-2.8-8.3-1.2c-0.3,0.2-0.7,0.3-1,0.4c-5.1,2.3-10.4,4.2-15.7,6.2c-1.2,0.5-2.8,1.8-3.9,0
		c-1.1-1.7,0.5-2.7,1.5-3.7c6-6.3,12.1-12.7,18.1-19c0.4-0.4,0.8-0.9,1.2-1.3c1.9,0.7,2.7,2.4,3.6,3.6c2.6,3.5,5.2,6.9,7.9,10.4
		c0.5,0.6,0.9,1.2,1.3,1.7c1.2,1.6,2.5,3.1,3.7,4.7c0.4,0.5,0.8,1,1.1,1.4c1.8,2.3,3.6,4.6,5.4,6.9c0.1,0.2,0.3,0.4,0.4,0.6
		c0.4,0.5,0.8,1.1,1.3,1.6c1.8,2.3,3.6,4.7,5.4,7c2.5,3.4,5,6.8,7.5,10.2c1.8,2.5,3.5,5,5.2,7.6c3,4.6,6,5.1,11,2.2
		c4.7-2.8,8.9-6.2,13-9.8c0.1-0.1,0.3-0.2,0.4-0.4c3.6-4.5,1.2-8.1-1.5-11.8c-10.5-6.2-16.2-2.8-20.3,12.1c0,0.2-0.1,0.4-0.2,0.6
		c-0.4-0.1-0.8-0.3-1.2-0.6c-1.2-0.8-2-2.1-2.9-3.2c-2.6-3.4-5.2-6.8-7.8-10.2c-0.4-0.6-0.9-1.1-1.3-1.7c-1.5-2-3-3.9-4.5-5.9
		c-0.1-0.1-0.1-0.2-0.2-0.3c-3.4-4.5-6.9-9-10.4-13.5c-0.3-0.4-0.6-0.8-0.9-1.2c-3.2-4.2-6.4-8.3-9.7-12.4c-2.3-3-2.5-4.8,0.5-7.2
		c2.6-2,4.7-4.8,6.9-7.4c1.6-1.9,2.9-2.5,5-0.3c5.1,5.2,10.2,10.4,15.3,15.6c4,4.1,8,8.2,12,12.2c1.9,1.9,3.8,3.9,5.7,5.8
		c5.3,5.3,10.9,10.2,15.6,16.1c3.3,2.2,5.6,5.3,8.3,8c1,0.9,1.9,1.8,2.8,2.8c1,1.1,1.9,2.2,2.8,3.4c4,5.3,6.9,5.7,13,2.6
		c3.4-1.8,6-4.5,9-6.5C395.5,203.8,395.5,203.8,390.3,196.7z M157.4,258.9c-2.3,1.4-3.7,0.7-5.1-1.3c-2.3-3.2-4.8-6.3-7.7-10.1
		c13.3-2.3,25.9-4.5,38.7-6c0.1,0.9,0.3,1.8,0.4,2.7C175,249,166.2,253.8,157.4,258.9z M212.6,198.5c-2.7,17-19.4,27.9-36,23
		c-8.8-2.7-10-2.5-16.3-11.1c-7.7-9.9-8.4-25.3-1.7-34.6c8.3-11.4,21-15.5,33.7-11c2.8,1,4.1,2,4.1,5.4c0.1,9.8,4.8,17.3,13.3,22
		C212.8,193.9,213,195.7,212.6,198.5z M244,179.3c-3,5.6-6.8,10.4-13.8,12.3c-11.3,2.9-22.4-1-27.7-10.6c-5-9-3.7-21.2,2.9-26.9
		c11.5-10,22.3-10.9,32.8-2.9c2,1.6,5.7,5.7,6.8,9.1C247.3,166.7,247.3,173.3,244,179.3z M283,163c-0.5,2.4-18.6,21.1-18.6,21.1
		c-3.9-2.8-3.9-5.7-2-9.4c4-8.1,7.6-16.6,11.7-25.6c3.1,3.9,5.7,7.3,8.2,10.7C283,160.9,283.2,162,283,163z M174.5,268.3
		c-2.9,3.5-2.4,5.7,0.3,8.9c0.3,0.4,0.6,0.8,1,1.2v-11.7C175.3,267.3,174.9,267.8,174.5,268.3z"/>
	<path class="st1" d="M235,161.6c-3.6-4.7-10.3-4.6-16.7,0.1c-4.2,3.1-4.8,9.2-1.3,13.7c3.8,5,10.2,5.9,15.4,2
		C237.8,173.4,238.9,166.7,235,161.6z M225.2,171c-1.6,0.9-3.3,1.1-4.6-0.4s-1-3.2,0.4-4.5c1.5-1.3,3.3-1.2,4.5,0.3
		C226.8,167.9,226.3,169.5,225.2,171z"/>
	<path class="st1" d="M197.2,184.7c-6.1-7.7-12.7-8-21.5-0.9c-4.2,3.4-4.2,12.2-0.1,17.5c4.9,6.3,13.3,7.4,19.5,2.5
		C201.3,199,202.3,190.9,197.2,184.7z M193.2,189.9c-2.1,0.8-4,0.5-5.1-1.6c-1.2-2.1-0.7-4,1.4-5.2c1.9-1.1,3.6-0.4,4.7,1.4
		C195.3,186.5,195,188.3,193.2,189.9z"/>
</g>
<g id="Calque_3_-_copie">
	<path class="st0" d="M224,352.4v13l-7.6,5.4c-0.4-2.1-1-3.9-1.7-5.5c-0.5-1-1-1.9-1.6-2.8c-1.8-2.3-4.1-3.9-7-4.7
		c-1.4-0.4-2.9-0.5-4.5-0.5h-5.7v28.3l-9.4,6.8l-7.4,5.3l-0.3-0.2l-9.4-6.7c0.8-2.7,1.2-6,1.2-9.7V378c0-6.8-1.3-12-3.9-15.5
		c-0.9-1.2-1.9-2.1-3.1-2.9c-2.3-1.5-5.1-2.3-8.4-2.3h-5.7v19.1l-15.3-11v-21.3h21.1c5.7,0,10.9,1.2,15.6,3.6
		c0.4,0.2,0.8,0.4,1.3,0.7c2.5,1.4,4.8,3.2,6.7,5.2v-9.5h22.8c3,0,5.8,0.3,8.4,1c3,0.7,5.8,1.8,8.5,3.3
		C220.5,349.5,222.3,350.9,224,352.4z"/>
	<polygon class="st0" points="224,326.2 224,337.1 134,337.1 134,326.1 157.9,326.1 163.4,326.1 175.8,326.1 201.4,326.2 210,326.2 
		216,326.2 	"/>
	<polygon class="st0" points="224,306.9 224,320.1 223.9,320.1 223.9,320.2 213,320.2 213,320.2 144.9,320.2 144.9,320.1 
		134.1,320.1 134.1,320.1 134,320.1 134,299.3 134.1,299.3 139.8,295.1 143.6,292.4 145,291.4 145,291.4 149.3,288.3 149.3,306.9 
		178.8,306.9 178.8,267.2 179,267 180.5,268 211,290 195.8,290 195.8,306.9 	"/>
</g>
</svg>
