<?xml version="1.0" encoding="utf-8"?>
<!-- Generator: Adobe Illustrator 21.0.0, SVG Export Plug-In . SVG Version: 6.00 Build 0)  -->
<svg version="1.1" id="Calque_2" xmlns="http://www.w3.org/2000/svg" xmlns:xlink="http://www.w3.org/1999/xlink" x="0px" y="0px"
	 viewBox="0 0 500 500" style="enable-background:new 0 0 500 500;" xml:space="preserve">
<style type="text/css">
	.st0{fill:#FFD149;}
</style>
<path class="st0" d="M324.8,260.3c-55,2-61.4,68.7-6.9,79.8c-27.3-16.2-29.1-53.8,6.4-55.6c46.4,1.1,57.2,61.4-0.2,70.9
	c-33.2,3.1-63.1-29.7-65.2-62.2c0.8-29.5,23.1-44.7,39.6-60.4c26.4-27.7,35.7-51.7,36.3-88.4c-0.4-12.8-6.7-49.2-31.6-51.4
	c-20.1-0.2-27.5,36.9-27.7,49.5c0.2,5.4,0.6,10.4,1.3,15.6c-17.3-2.9-38.5,0.4-56.9,10.8c-1.5,0.9-3.1,1.8-4.5,2.7
	c1-5,1.5-10.6,1.6-17.2c-0.4-12.2-6.4-47.2-30.3-49.3c-19.3-0.2-26.4,35.4-26.5,47.5c0.2,5.2,0.5,10,1.3,15c0.7,4.6,1.6,9.3,3,14.6
	c1.9,7.2,4.6,15.5,8.3,25.9c-7.1,5.9-23.6,20.5-36.3,38.4c-11.8,13.3-15.2,25.6-15.9,33.8c0,0.1,0,0.2,0,0.3
	c-4.9,30.4,15.6,59.4,56,56.9c68.6-8.7,66.2-90,18.5-85.5c-44.9,5.3-61.9,60.9-19.7,66.5c-19.3-11.6-14-42.6,15.1-46.5
	c37.4-2.2,35.5,47.1-12.7,58.8c-27.5,4.8-45.9-20.4-41.9-47.2c5.9-24.5,26.7-38.6,42.8-52.6c12.1-11.4,21.2-21.9,28.1-32.8
	c1.3-1.3,2-2,2-2.1l0.2-0.2c20-23.1,52.1-28.1,71.2-22.5c2,7.6,4.8,16.4,8.9,27.6c0,0-51.1,41.2-49.9,87c1.1,21,12.5,42.2,31.3,56.8
	c-0.5,0.6-1,1.2-1.5,1.9c-6.7,8.4-22.2,28-26.8,32.4c-5.7,5.4-11.7,8.5-21.9,7.8c3.6-4.4,5.8-10,5.8-16.1
	c0-13.9-11.3-25.2-25.2-25.2s-25.2,11.3-25.2,25.2c0,6.5,2.5,12.5,6.6,17c2.7,2.9,6.1,5.3,9.9,6.7c12.4,4.5,22.5,6.7,31.1,6.7
	c11.4,0,20.2-3.9,28.5-11.8c4.8-4.6,17-19.9,28.1-33.8c0.9-1.1,1.7-2.1,2.3-2.9c12.1,6.6,26.4,10.6,42.4,10.9
	C408.2,359.6,383.4,259.5,324.8,260.3z M171.3,167.9c-0.3-14.3,7.2-34.9,24.2-36.5c6.3,0.2,8.6,7.6,9,19.8
	c-0.9,18.2-5.6,28.8-12.6,37.4c-3.4,4.2-7.3,8-11.7,11.9c-0.5,0.5-1.1,1-1.6,1.5c-1.6-4.9-3.6-10.3-5.1-16.6
	c-1.1-4.6-2-9.7-2.2-15.4C171.4,169.2,171.4,168.5,171.3,167.9z M286.3,158.4c-0.3-15.7,7.8-38.1,26.4-39.9
	c6.9,0.2,9.3,8.3,9.9,21.6c-1,19.9-6.1,31.5-13.7,40.9c-3.7,4.6-8,8.7-12.7,13c-0.6,0.5-1.2,1.1-1.8,1.6c-1.8-5.4-3.9-11.3-5.6-18.1
	c-1.2-5-2.2-10.6-2.4-16.8C286.4,159.9,286.3,159.2,286.3,158.4z"/>
</svg>
