<?xml version="1.0" encoding="utf-8"?>
<!-- Generator: Adobe Illustrator 21.0.0, SVG Export Plug-In . SVG Version: 6.00 Build 0)  -->
<svg version="1.1" id="Calque_2" xmlns="http://www.w3.org/2000/svg" xmlns:xlink="http://www.w3.org/1999/xlink" x="0px" y="0px"
	 viewBox="0 0 500 500" style="enable-background:new 0 0 500 500;" xml:space="preserve">
<style type="text/css">
	.st0{fill:#FFD149;}
	.st1{fill:#FFA000;}
</style>
<g>
	<polygon class="st0" points="355.7,294.7 303.6,149.7 298,161.2 345.6,293.7 	"/>
	<path class="st0" d="M157.6,288c2.4-4,5.1-7.4,8.1-10.2c2.5-2.4,6-5.7,8.8-6.9l42.3-97.4l-6.5-8.4l-53.1,122.1
		C157.2,287.3,157.6,287.7,157.6,288z"/>
</g>
<polygon class="st1" points="219.9,281.5 237.8,283.2 298,161.2 303.6,149.7 295.8,127.9 259.4,201.7 217.8,148.1 210.3,165.1 
	251.3,218 "/>
<g>
	<path class="st1" d="M118.2,275.3c0.9-0.1,2.4-0.1,4.4-0.1c2,0,4.7,0.4,8,1.3c3.3,0.8,6.4,2.2,9.2,4c2.8,1.8,5.4,4,7.7,6.6
		c4.3,4.8,7.7,10.6,10.2,17.3c3.5-10,8.1-17.7,13.7-23c4.3-4,9-6.1,14.1-6.1c0.2,0,0.5,0,0.7,0v0.9c-2.9,0.1-6,1.6-9.1,4.6
		c-3.1,3-5.9,6.7-8.2,10.9c-2.3,4.3-4.3,8.7-5.9,13.4c-1.6,4.6-2.6,8.6-2.9,12v18.4c0,1.5,0.5,2.8,1.6,3.9c1.1,1.1,2.4,1.7,4,1.7
		h1.1v0.9h-26.7v-0.9h1.1c1.5,0,2.8-0.5,3.9-1.6c1.1-1.1,1.7-2.4,1.7-3.9v-18.5c-0.7-6.3-2.8-13-6.3-20.1c-4-8.2-8.6-14-13.6-17.5
		c-2.9-2-5.9-3.1-8.9-3.3V275.3z"/>
	<path class="st1" d="M186.9,341.2c1.3,0,2.5-0.5,3.4-1.4c0.9-0.9,1.4-2.1,1.5-3.4v-42.5c-0.2-1.8-1-3.1-2.5-4
		c-0.8-0.4-1.6-0.6-2.4-0.6h-1v-0.8h29.2c1.6,0,3.3-0.2,5.2-0.5c1.9-0.3,3.2-0.6,4-0.9v13.3h-0.8v-0.9c0-2.3-0.7-4.1-2-5.5
		c-1.3-1.4-3.2-2.1-5.5-2.3h-12.8V314h10.1c1.9,0,3.4-0.7,4.7-1.9c1.2-1.2,1.8-2.8,1.8-4.6v-0.7h0.8v17.6h-0.8v-0.6
		c0-2.5-1-4.4-3.1-5.6c-1-0.6-2.1-0.9-3.4-0.9h-10.1v21.4h10c3.7,0,6.8-1.1,9.3-3.2c2.5-2.1,4.4-5.2,5.6-9.1h0.8l-3.5,15.6h-39.5
		v-0.8H186.9z"/>
	<path class="st1" d="M286.4,295c-1.1,0-2.1,0.4-2.9,1.2c-0.8,0.8-1.2,1.8-1.3,2.9v35.1c0,3,0.2,5.6,0.6,7.7l0.2,1h-0.6L248,310.2
		v27c0,1.1,0.4,2.1,1.2,2.9c0.8,0.8,1.8,1.2,2.9,1.2h1.3v0.7h-20.6v-0.7h1.2c1.2,0,2.2-0.4,3-1.2c0.8-0.8,1.2-1.8,1.2-3v-35.3
		c0-3-0.2-5.5-0.6-7.5l-0.1-1h0.6l34.3,32.7v-26.8c0-1.2-0.5-2.2-1.3-3c-0.8-0.8-1.8-1.2-2.9-1.2h-1.2v-0.7h20.6v0.7H286.4z"/>
	<path class="st1" d="M341.1,298.5c-1,0-2,0.4-2.7,1.1c-0.8,0.7-1.2,1.6-1.2,2.7v32.5c0,2.8,0.2,5.2,0.6,7.1l0.2,0.9h-0.6
		l-31.8-30.3v25c0,1.1,0.4,1.9,1.1,2.7c0.8,0.7,1.7,1.1,2.7,1.1h1.2v0.6h-19.1v-0.6h1.1c1.1,0,2-0.4,2.8-1.1
		c0.8-0.7,1.1-1.6,1.1-2.7v-32.7c0-2.8-0.2-5.1-0.6-6.9l-0.1-0.9h0.6l31.8,30.3v-24.9c0-1.1-0.4-2-1.2-2.7c-0.8-0.7-1.7-1.1-2.7-1.1
		h-1.1v-0.6h19.1v0.6H341.1z"/>
	<path class="st1" d="M347.4,341.3c1,0,1.9-0.4,2.7-1.1c0.7-0.7,1.1-1.6,1.2-2.7v-33.2c-0.1-1.4-0.8-2.4-2-3.1
		c-0.6-0.3-1.2-0.5-1.9-0.5h-0.8v-0.6h22.9c1.2,0,2.6-0.1,4.1-0.4c1.5-0.2,2.5-0.5,3.1-0.7v10.4H376v-0.7c0-1.8-0.5-3.2-1.6-4.3
		c-1.1-1.1-2.5-1.7-4.3-1.8h-10v17.4h7.9c1.5,0,2.7-0.5,3.6-1.5s1.4-2.2,1.4-3.6v-0.5h0.6v13.8h-0.6v-0.5c0-2-0.8-3.5-2.4-4.4
		c-0.8-0.4-1.7-0.7-2.6-0.7h-7.9v16.8h7.8c2.9,0,5.3-0.8,7.3-2.5c2-1.7,3.4-4,4.4-7.1h0.6l-2.7,12.2h-30.9v-0.6H347.4z"/>
</g>
</svg>
