<?xml version="1.0" encoding="utf-8"?>
<!-- Generator: Adobe Illustrator 21.0.0, SVG Export Plug-In . SVG Version: 6.00 Build 0)  -->
<svg version="1.1" id="Calque_3" xmlns="http://www.w3.org/2000/svg" xmlns:xlink="http://www.w3.org/1999/xlink" x="0px" y="0px"
	 viewBox="0 0 500 500" style="enable-background:new 0 0 500 500;" xml:space="preserve">
<style type="text/css">
	.st0{fill:#FFD149;}
	.st1{fill:#FFA000;}
</style>
<path class="st0" d="M311.3,280.7h-55v22.8c-4.7-4.9-10.1-9.1-16.2-12.5c-12-6.8-25.6-10.2-40.7-10.2h-50.7V332l36.9,26.5v-46h13.8
	c12.1,0,21.3,4.2,27.7,12.5c6.3,8.4,9.5,20.8,9.5,37.3v7.4c0,9-0.9,16.8-2.8,23.4l22.5,16.2l0.6,0.5l17.8-12.8l22.7-16.3v-68.1h13.8
	c12.1,0,21.3,4.2,27.7,12.5c3.9,5.1,6.6,11.8,8.1,20l18.2-13.1v-31.3c-4-3.7-8.4-6.9-13.3-9.7C339.9,284.1,326.4,280.7,311.3,280.7z
	"/>
<polygon class="st1" points="148.8,263.8 365.2,263.8 365.2,237.5 148.8,237.4 "/>
<polygon class="st0" points="340,191.2 338.8,191.2 297.5,191.2 297.5,150.4 334.1,150.4 257,95 256.4,95.4 256.4,191.2 
	185.4,191.2 185.4,146.4 175.2,153.7 175.2,153.8 148.8,172.7 148.8,172.7 148.8,222.8 148.8,222.8 148.8,222.8 174.9,222.8 
	174.9,223.1 338.8,223.1 338.8,223.2 365.2,223.2 365.2,222.8 365.2,222.8 365.2,191.2 365.2,191.2 "/>
</svg>
